M48
INCH,TZ
T1C0.0157
T2C0.0300
T3C0.0315
%
G90
G05
T1
X53823Y-35569
X53854Y-36997
X55006Y-33954
X55367Y-34956
X55508Y-33962
X55642Y-38589
X55906Y-38951
X55935Y-35001
X56009Y-34612
X56934Y-32558
X58874Y-38018
T2
X47585Y-32218
X47585Y-33218
X47585Y-34218
X47585Y-35218
X47585Y-36218
X47585Y-37218
X47585Y-38218
X47585Y-39218
X65522Y-32218
X65522Y-33218
X65522Y-34218
X65522Y-35218
X65522Y-36218
X65522Y-37218
X65522Y-38218
X65522Y-39218
T3
X50541Y-32844
X50541Y-33631
X50541Y-34419
X50541Y-35206
X50541Y-35994
X60669Y-35619
X60669Y-36406
T0
M30
