%TF.GenerationSoftware,KiCad,Pcbnew,(5.1.10)-1*%
%TF.CreationDate,2021-11-25T14:23:59+01:00*%
%TF.ProjectId,CLIP_HOSTBOARD,434c4950-5f48-44f5-9354-424f4152442e,rev?*%
%TF.SameCoordinates,Original*%
%TF.FileFunction,Soldermask,Top*%
%TF.FilePolarity,Negative*%
%FSLAX46Y46*%
G04 Gerber Fmt 4.6, Leading zero omitted, Abs format (unit mm)*
G04 Created by KiCad (PCBNEW (5.1.10)-1) date 2021-11-25 14:23:59*
%MOMM*%
%LPD*%
G01*
G04 APERTURE LIST*
%ADD10C,1.524000*%
%ADD11R,1.524000X1.524000*%
%ADD12R,0.800000X1.200000*%
%ADD13R,1.300000X2.150000*%
%ADD14R,1.350000X1.350000*%
%ADD15O,1.350000X1.350000*%
G04 APERTURE END LIST*
D10*
%TO.C,S1*%
X166426201Y-81834800D03*
X166426201Y-84374800D03*
X166426201Y-86914800D03*
X166426201Y-89454800D03*
X166426201Y-91994800D03*
X166426201Y-94534800D03*
X166426201Y-97074800D03*
D11*
X166426201Y-99614800D03*
X120866201Y-99614800D03*
D10*
X120866201Y-97074800D03*
X120866201Y-94534800D03*
X120866201Y-91994800D03*
X120866201Y-89454800D03*
X120866201Y-86914800D03*
X120866201Y-84374800D03*
X120866201Y-81834800D03*
%TD*%
D12*
%TO.C,J1*%
X139762700Y-84635140D03*
X141012700Y-84635140D03*
X142262700Y-84635140D03*
X143512700Y-84635140D03*
X144762700Y-84635140D03*
X146012700Y-84635140D03*
D13*
X137862700Y-82340140D03*
X147912700Y-82340140D03*
%TD*%
%TO.C,U1*%
G36*
G01*
X144542120Y-89927880D02*
X144742120Y-89927880D01*
G75*
G02*
X144842120Y-90027880I0J-100000D01*
G01*
X144842120Y-91302880D01*
G75*
G02*
X144742120Y-91402880I-100000J0D01*
G01*
X144542120Y-91402880D01*
G75*
G02*
X144442120Y-91302880I0J100000D01*
G01*
X144442120Y-90027880D01*
G75*
G02*
X144542120Y-89927880I100000J0D01*
G01*
G37*
G36*
G01*
X143892120Y-89927880D02*
X144092120Y-89927880D01*
G75*
G02*
X144192120Y-90027880I0J-100000D01*
G01*
X144192120Y-91302880D01*
G75*
G02*
X144092120Y-91402880I-100000J0D01*
G01*
X143892120Y-91402880D01*
G75*
G02*
X143792120Y-91302880I0J100000D01*
G01*
X143792120Y-90027880D01*
G75*
G02*
X143892120Y-89927880I100000J0D01*
G01*
G37*
G36*
G01*
X143242120Y-89927880D02*
X143442120Y-89927880D01*
G75*
G02*
X143542120Y-90027880I0J-100000D01*
G01*
X143542120Y-91302880D01*
G75*
G02*
X143442120Y-91402880I-100000J0D01*
G01*
X143242120Y-91402880D01*
G75*
G02*
X143142120Y-91302880I0J100000D01*
G01*
X143142120Y-90027880D01*
G75*
G02*
X143242120Y-89927880I100000J0D01*
G01*
G37*
G36*
G01*
X142592120Y-89927880D02*
X142792120Y-89927880D01*
G75*
G02*
X142892120Y-90027880I0J-100000D01*
G01*
X142892120Y-91302880D01*
G75*
G02*
X142792120Y-91402880I-100000J0D01*
G01*
X142592120Y-91402880D01*
G75*
G02*
X142492120Y-91302880I0J100000D01*
G01*
X142492120Y-90027880D01*
G75*
G02*
X142592120Y-89927880I100000J0D01*
G01*
G37*
G36*
G01*
X141942120Y-89927880D02*
X142142120Y-89927880D01*
G75*
G02*
X142242120Y-90027880I0J-100000D01*
G01*
X142242120Y-91302880D01*
G75*
G02*
X142142120Y-91402880I-100000J0D01*
G01*
X141942120Y-91402880D01*
G75*
G02*
X141842120Y-91302880I0J100000D01*
G01*
X141842120Y-90027880D01*
G75*
G02*
X141942120Y-89927880I100000J0D01*
G01*
G37*
G36*
G01*
X141292120Y-89927880D02*
X141492120Y-89927880D01*
G75*
G02*
X141592120Y-90027880I0J-100000D01*
G01*
X141592120Y-91302880D01*
G75*
G02*
X141492120Y-91402880I-100000J0D01*
G01*
X141292120Y-91402880D01*
G75*
G02*
X141192120Y-91302880I0J100000D01*
G01*
X141192120Y-90027880D01*
G75*
G02*
X141292120Y-89927880I100000J0D01*
G01*
G37*
G36*
G01*
X140642120Y-89927880D02*
X140842120Y-89927880D01*
G75*
G02*
X140942120Y-90027880I0J-100000D01*
G01*
X140942120Y-91302880D01*
G75*
G02*
X140842120Y-91402880I-100000J0D01*
G01*
X140642120Y-91402880D01*
G75*
G02*
X140542120Y-91302880I0J100000D01*
G01*
X140542120Y-90027880D01*
G75*
G02*
X140642120Y-89927880I100000J0D01*
G01*
G37*
G36*
G01*
X140642120Y-95652880D02*
X140842120Y-95652880D01*
G75*
G02*
X140942120Y-95752880I0J-100000D01*
G01*
X140942120Y-97027880D01*
G75*
G02*
X140842120Y-97127880I-100000J0D01*
G01*
X140642120Y-97127880D01*
G75*
G02*
X140542120Y-97027880I0J100000D01*
G01*
X140542120Y-95752880D01*
G75*
G02*
X140642120Y-95652880I100000J0D01*
G01*
G37*
G36*
G01*
X141292120Y-95652880D02*
X141492120Y-95652880D01*
G75*
G02*
X141592120Y-95752880I0J-100000D01*
G01*
X141592120Y-97027880D01*
G75*
G02*
X141492120Y-97127880I-100000J0D01*
G01*
X141292120Y-97127880D01*
G75*
G02*
X141192120Y-97027880I0J100000D01*
G01*
X141192120Y-95752880D01*
G75*
G02*
X141292120Y-95652880I100000J0D01*
G01*
G37*
G36*
G01*
X141942120Y-95652880D02*
X142142120Y-95652880D01*
G75*
G02*
X142242120Y-95752880I0J-100000D01*
G01*
X142242120Y-97027880D01*
G75*
G02*
X142142120Y-97127880I-100000J0D01*
G01*
X141942120Y-97127880D01*
G75*
G02*
X141842120Y-97027880I0J100000D01*
G01*
X141842120Y-95752880D01*
G75*
G02*
X141942120Y-95652880I100000J0D01*
G01*
G37*
G36*
G01*
X142592120Y-95652880D02*
X142792120Y-95652880D01*
G75*
G02*
X142892120Y-95752880I0J-100000D01*
G01*
X142892120Y-97027880D01*
G75*
G02*
X142792120Y-97127880I-100000J0D01*
G01*
X142592120Y-97127880D01*
G75*
G02*
X142492120Y-97027880I0J100000D01*
G01*
X142492120Y-95752880D01*
G75*
G02*
X142592120Y-95652880I100000J0D01*
G01*
G37*
G36*
G01*
X143242120Y-95652880D02*
X143442120Y-95652880D01*
G75*
G02*
X143542120Y-95752880I0J-100000D01*
G01*
X143542120Y-97027880D01*
G75*
G02*
X143442120Y-97127880I-100000J0D01*
G01*
X143242120Y-97127880D01*
G75*
G02*
X143142120Y-97027880I0J100000D01*
G01*
X143142120Y-95752880D01*
G75*
G02*
X143242120Y-95652880I100000J0D01*
G01*
G37*
G36*
G01*
X143892120Y-95652880D02*
X144092120Y-95652880D01*
G75*
G02*
X144192120Y-95752880I0J-100000D01*
G01*
X144192120Y-97027880D01*
G75*
G02*
X144092120Y-97127880I-100000J0D01*
G01*
X143892120Y-97127880D01*
G75*
G02*
X143792120Y-97027880I0J100000D01*
G01*
X143792120Y-95752880D01*
G75*
G02*
X143892120Y-95652880I100000J0D01*
G01*
G37*
G36*
G01*
X144542120Y-95652880D02*
X144742120Y-95652880D01*
G75*
G02*
X144842120Y-95752880I0J-100000D01*
G01*
X144842120Y-97027880D01*
G75*
G02*
X144742120Y-97127880I-100000J0D01*
G01*
X144542120Y-97127880D01*
G75*
G02*
X144442120Y-97027880I0J100000D01*
G01*
X144442120Y-95752880D01*
G75*
G02*
X144542120Y-95652880I100000J0D01*
G01*
G37*
%TD*%
D14*
%TO.C,J2*%
X154099260Y-90472260D03*
D15*
X154099260Y-92472260D03*
%TD*%
D14*
%TO.C,J3*%
X128374140Y-83423760D03*
D15*
X128374140Y-85423760D03*
X128374140Y-87423760D03*
X128374140Y-89423760D03*
X128374140Y-91423760D03*
%TD*%
%TO.C,C1*%
G36*
G01*
X148514820Y-96310640D02*
X148514820Y-96810640D01*
G75*
G02*
X148289820Y-97035640I-225000J0D01*
G01*
X147839820Y-97035640D01*
G75*
G02*
X147614820Y-96810640I0J225000D01*
G01*
X147614820Y-96310640D01*
G75*
G02*
X147839820Y-96085640I225000J0D01*
G01*
X148289820Y-96085640D01*
G75*
G02*
X148514820Y-96310640I0J-225000D01*
G01*
G37*
G36*
G01*
X146964820Y-96310640D02*
X146964820Y-96810640D01*
G75*
G02*
X146739820Y-97035640I-225000J0D01*
G01*
X146289820Y-97035640D01*
G75*
G02*
X146064820Y-96810640I0J225000D01*
G01*
X146064820Y-96310640D01*
G75*
G02*
X146289820Y-96085640I225000J0D01*
G01*
X146739820Y-96085640D01*
G75*
G02*
X146964820Y-96310640I0J-225000D01*
G01*
G37*
%TD*%
M02*
