%TF.GenerationSoftware,KiCad,Pcbnew,(5.1.10)-1*%
%TF.CreationDate,2021-11-25T10:31:52+01:00*%
%TF.ProjectId,CLIP_HOSTBOARD,434c4950-5f48-44f5-9354-424f4152442e,rev?*%
%TF.SameCoordinates,Original*%
%TF.FileFunction,Legend,Top*%
%TF.FilePolarity,Positive*%
%FSLAX46Y46*%
G04 Gerber Fmt 4.6, Leading zero omitted, Abs format (unit mm)*
G04 Created by KiCad (PCBNEW (5.1.10)-1) date 2021-11-25 10:31:52*
%MOMM*%
%LPD*%
G01*
G04 APERTURE LIST*
%ADD10C,0.150000*%
%ADD11C,0.100000*%
%ADD12C,0.200000*%
%ADD13C,0.120000*%
%ADD14C,0.254000*%
G04 APERTURE END LIST*
D10*
X151780027Y-83572340D02*
X151780027Y-82572340D01*
X152351456Y-83572340D02*
X151922884Y-83000912D01*
X152351456Y-82572340D02*
X151780027Y-83143769D01*
X153351456Y-83572340D02*
X153018122Y-83096150D01*
X152780027Y-83572340D02*
X152780027Y-82572340D01*
X153160980Y-82572340D01*
X153256218Y-82619960D01*
X153303837Y-82667579D01*
X153351456Y-82762817D01*
X153351456Y-82905674D01*
X153303837Y-83000912D01*
X153256218Y-83048531D01*
X153160980Y-83096150D01*
X152780027Y-83096150D01*
X153637170Y-82572340D02*
X154208599Y-82572340D01*
X153922884Y-83572340D02*
X153922884Y-82572340D01*
X154541932Y-83048531D02*
X154875265Y-83048531D01*
X155018122Y-83572340D02*
X154541932Y-83572340D01*
X154541932Y-82572340D01*
X155018122Y-82572340D01*
X155446694Y-83572340D02*
X155446694Y-82572340D01*
X156018122Y-83572340D02*
X155589551Y-83000912D01*
X156018122Y-82572340D02*
X155446694Y-83143769D01*
X156208599Y-83667579D02*
X156970503Y-83667579D01*
X157065741Y-82572340D02*
X157399075Y-83572340D01*
X157732408Y-82572340D01*
X158018122Y-82667579D02*
X158065741Y-82619960D01*
X158160980Y-82572340D01*
X158399075Y-82572340D01*
X158494313Y-82619960D01*
X158541932Y-82667579D01*
X158589551Y-82762817D01*
X158589551Y-82858055D01*
X158541932Y-83000912D01*
X157970503Y-83572340D01*
X158589551Y-83572340D01*
X151875265Y-85127102D02*
X151827646Y-85174721D01*
X151684789Y-85222340D01*
X151589551Y-85222340D01*
X151446694Y-85174721D01*
X151351456Y-85079483D01*
X151303837Y-84984245D01*
X151256218Y-84793769D01*
X151256218Y-84650912D01*
X151303837Y-84460436D01*
X151351456Y-84365198D01*
X151446694Y-84269960D01*
X151589551Y-84222340D01*
X151684789Y-84222340D01*
X151827646Y-84269960D01*
X151875265Y-84317579D01*
X152780027Y-85222340D02*
X152303837Y-85222340D01*
X152303837Y-84222340D01*
X153113360Y-85222340D02*
X153113360Y-84222340D01*
X153589551Y-85222340D02*
X153589551Y-84222340D01*
X153970503Y-84222340D01*
X154065741Y-84269960D01*
X154113360Y-84317579D01*
X154160980Y-84412817D01*
X154160980Y-84555674D01*
X154113360Y-84650912D01*
X154065741Y-84698531D01*
X153970503Y-84746150D01*
X153589551Y-84746150D01*
X154922884Y-84698531D02*
X155065741Y-84746150D01*
X155113360Y-84793769D01*
X155160980Y-84889007D01*
X155160980Y-85031864D01*
X155113360Y-85127102D01*
X155065741Y-85174721D01*
X154970503Y-85222340D01*
X154589551Y-85222340D01*
X154589551Y-84222340D01*
X154922884Y-84222340D01*
X155018122Y-84269960D01*
X155065741Y-84317579D01*
X155113360Y-84412817D01*
X155113360Y-84508055D01*
X155065741Y-84603293D01*
X155018122Y-84650912D01*
X154922884Y-84698531D01*
X154589551Y-84698531D01*
X155780027Y-84222340D02*
X155970503Y-84222340D01*
X156065741Y-84269960D01*
X156160980Y-84365198D01*
X156208599Y-84555674D01*
X156208599Y-84889007D01*
X156160980Y-85079483D01*
X156065741Y-85174721D01*
X155970503Y-85222340D01*
X155780027Y-85222340D01*
X155684789Y-85174721D01*
X155589551Y-85079483D01*
X155541932Y-84889007D01*
X155541932Y-84555674D01*
X155589551Y-84365198D01*
X155684789Y-84269960D01*
X155780027Y-84222340D01*
X156589551Y-84936626D02*
X157065741Y-84936626D01*
X156494313Y-85222340D02*
X156827646Y-84222340D01*
X157160980Y-85222340D01*
X158065741Y-85222340D02*
X157732408Y-84746150D01*
X157494313Y-85222340D02*
X157494313Y-84222340D01*
X157875265Y-84222340D01*
X157970503Y-84269960D01*
X158018122Y-84317579D01*
X158065741Y-84412817D01*
X158065741Y-84555674D01*
X158018122Y-84650912D01*
X157970503Y-84698531D01*
X157875265Y-84746150D01*
X157494313Y-84746150D01*
X158494313Y-85222340D02*
X158494313Y-84222340D01*
X158732408Y-84222340D01*
X158875265Y-84269960D01*
X158970503Y-84365198D01*
X159018122Y-84460436D01*
X159065741Y-84650912D01*
X159065741Y-84793769D01*
X159018122Y-84984245D01*
X158970503Y-85079483D01*
X158875265Y-85174721D01*
X158732408Y-85222340D01*
X158494313Y-85222340D01*
X154518122Y-86872340D02*
X154184789Y-86396150D01*
X153946694Y-86872340D02*
X153946694Y-85872340D01*
X154327646Y-85872340D01*
X154422884Y-85919960D01*
X154470503Y-85967579D01*
X154518122Y-86062817D01*
X154518122Y-86205674D01*
X154470503Y-86300912D01*
X154422884Y-86348531D01*
X154327646Y-86396150D01*
X153946694Y-86396150D01*
X155137170Y-85872340D02*
X155232408Y-85872340D01*
X155327646Y-85919960D01*
X155375265Y-85967579D01*
X155422884Y-86062817D01*
X155470503Y-86253293D01*
X155470503Y-86491388D01*
X155422884Y-86681864D01*
X155375265Y-86777102D01*
X155327646Y-86824721D01*
X155232408Y-86872340D01*
X155137170Y-86872340D01*
X155041932Y-86824721D01*
X154994313Y-86777102D01*
X154946694Y-86681864D01*
X154899075Y-86491388D01*
X154899075Y-86253293D01*
X154946694Y-86062817D01*
X154994313Y-85967579D01*
X155041932Y-85919960D01*
X155137170Y-85872340D01*
X156422884Y-86872340D02*
X155851456Y-86872340D01*
X156137170Y-86872340D02*
X156137170Y-85872340D01*
X156041932Y-86015198D01*
X155946694Y-86110436D01*
X155851456Y-86158055D01*
D11*
%TO.C,J1*%
X137512700Y-80785140D02*
X148262700Y-80785140D01*
X148262700Y-84685140D02*
X148262700Y-83785140D01*
X146887700Y-84685140D02*
X148262700Y-84685140D01*
X137512700Y-84685140D02*
X137512700Y-83785140D01*
X138887700Y-84685140D02*
X137512700Y-84685140D01*
D12*
X138887700Y-85285140D02*
X138887700Y-85285140D01*
X138887700Y-85085140D02*
X138887700Y-85085140D01*
X138887700Y-85285140D02*
G75*
G02*
X138887700Y-85085140I0J100000D01*
G01*
X138887700Y-85085140D02*
G75*
G02*
X138887700Y-85285140I0J-100000D01*
G01*
D13*
%TO.C,U1*%
X140082120Y-93527880D02*
X140082120Y-95727880D01*
X140082120Y-93527880D02*
X140082120Y-91327880D01*
X145302120Y-93527880D02*
X145302120Y-95727880D01*
X145302120Y-93527880D02*
X145302120Y-89927880D01*
%TO.C,J2*%
X153039260Y-93532260D02*
X155159260Y-93532260D01*
X153039260Y-91472260D02*
X153039260Y-93532260D01*
X155159260Y-91472260D02*
X155159260Y-93532260D01*
X153039260Y-91472260D02*
X155159260Y-91472260D01*
X153039260Y-90472260D02*
X153039260Y-89412260D01*
X153039260Y-89412260D02*
X154099260Y-89412260D01*
%TO.C,J3*%
X127314140Y-92483760D02*
X129434140Y-92483760D01*
X127314140Y-84423760D02*
X127314140Y-92483760D01*
X129434140Y-84423760D02*
X129434140Y-92483760D01*
X127314140Y-84423760D02*
X129434140Y-84423760D01*
X127314140Y-83423760D02*
X127314140Y-82363760D01*
X127314140Y-82363760D02*
X128374140Y-82363760D01*
%TO.C,C1*%
X147430400Y-97070640D02*
X147149240Y-97070640D01*
X147430400Y-96050640D02*
X147149240Y-96050640D01*
%TO.C,S1*%
D10*
X134035895Y-99728921D02*
X134178752Y-99776540D01*
X134416847Y-99776540D01*
X134512085Y-99728921D01*
X134559704Y-99681302D01*
X134607323Y-99586064D01*
X134607323Y-99490826D01*
X134559704Y-99395588D01*
X134512085Y-99347969D01*
X134416847Y-99300350D01*
X134226371Y-99252731D01*
X134131133Y-99205112D01*
X134083514Y-99157493D01*
X134035895Y-99062255D01*
X134035895Y-98967017D01*
X134083514Y-98871779D01*
X134131133Y-98824160D01*
X134226371Y-98776540D01*
X134464466Y-98776540D01*
X134607323Y-98824160D01*
X135559704Y-99776540D02*
X134988276Y-99776540D01*
X135273990Y-99776540D02*
X135273990Y-98776540D01*
X135178752Y-98919398D01*
X135083514Y-99014636D01*
X134988276Y-99062255D01*
X162772986Y-99114800D02*
X162677748Y-99067180D01*
X162534891Y-99067180D01*
X162392034Y-99114800D01*
X162296796Y-99210038D01*
X162249177Y-99305276D01*
X162201558Y-99495752D01*
X162201558Y-99638609D01*
X162249177Y-99829085D01*
X162296796Y-99924323D01*
X162392034Y-100019561D01*
X162534891Y-100067180D01*
X162630129Y-100067180D01*
X162772986Y-100019561D01*
X162820605Y-99971942D01*
X162820605Y-99638609D01*
X162630129Y-99638609D01*
X163249177Y-100067180D02*
X163249177Y-99067180D01*
X163820605Y-100067180D01*
X163820605Y-99067180D01*
X164296796Y-100067180D02*
X164296796Y-99067180D01*
X164534891Y-99067180D01*
X164677748Y-99114800D01*
X164772986Y-99210038D01*
X164820605Y-99305276D01*
X164868224Y-99495752D01*
X164868224Y-99638609D01*
X164820605Y-99829085D01*
X164772986Y-99924323D01*
X164677748Y-100019561D01*
X164534891Y-100067180D01*
X164296796Y-100067180D01*
X162439653Y-96527180D02*
X163058701Y-96527180D01*
X162725367Y-96908133D01*
X162868224Y-96908133D01*
X162963462Y-96955752D01*
X163011081Y-97003371D01*
X163058701Y-97098609D01*
X163058701Y-97336704D01*
X163011081Y-97431942D01*
X162963462Y-97479561D01*
X162868224Y-97527180D01*
X162582510Y-97527180D01*
X162487272Y-97479561D01*
X162439653Y-97431942D01*
X163344415Y-96527180D02*
X163677748Y-97527180D01*
X164011081Y-96527180D01*
X164249177Y-96527180D02*
X164868224Y-96527180D01*
X164534891Y-96908133D01*
X164677748Y-96908133D01*
X164772986Y-96955752D01*
X164820605Y-97003371D01*
X164868224Y-97098609D01*
X164868224Y-97336704D01*
X164820605Y-97431942D01*
X164772986Y-97479561D01*
X164677748Y-97527180D01*
X164392034Y-97527180D01*
X164296796Y-97479561D01*
X164249177Y-97431942D01*
X162868224Y-94034800D02*
X162772986Y-93987180D01*
X162630129Y-93987180D01*
X162487272Y-94034800D01*
X162392034Y-94130038D01*
X162344415Y-94225276D01*
X162296796Y-94415752D01*
X162296796Y-94558609D01*
X162344415Y-94749085D01*
X162392034Y-94844323D01*
X162487272Y-94939561D01*
X162630129Y-94987180D01*
X162725367Y-94987180D01*
X162868224Y-94939561D01*
X162915843Y-94891942D01*
X162915843Y-94558609D01*
X162725367Y-94558609D01*
X163344415Y-94987180D02*
X163344415Y-93987180D01*
X163725367Y-93987180D01*
X163820605Y-94034800D01*
X163868224Y-94082419D01*
X163915843Y-94177657D01*
X163915843Y-94320514D01*
X163868224Y-94415752D01*
X163820605Y-94463371D01*
X163725367Y-94510990D01*
X163344415Y-94510990D01*
X164772986Y-94320514D02*
X164772986Y-94987180D01*
X164534891Y-93939561D02*
X164296796Y-94653847D01*
X164915843Y-94653847D01*
X162868224Y-91494800D02*
X162772986Y-91447180D01*
X162630129Y-91447180D01*
X162487272Y-91494800D01*
X162392034Y-91590038D01*
X162344415Y-91685276D01*
X162296796Y-91875752D01*
X162296796Y-92018609D01*
X162344415Y-92209085D01*
X162392034Y-92304323D01*
X162487272Y-92399561D01*
X162630129Y-92447180D01*
X162725367Y-92447180D01*
X162868224Y-92399561D01*
X162915843Y-92351942D01*
X162915843Y-92018609D01*
X162725367Y-92018609D01*
X163344415Y-92447180D02*
X163344415Y-91447180D01*
X163725367Y-91447180D01*
X163820605Y-91494800D01*
X163868224Y-91542419D01*
X163915843Y-91637657D01*
X163915843Y-91780514D01*
X163868224Y-91875752D01*
X163820605Y-91923371D01*
X163725367Y-91970990D01*
X163344415Y-91970990D01*
X164249177Y-91447180D02*
X164868224Y-91447180D01*
X164534891Y-91828133D01*
X164677748Y-91828133D01*
X164772986Y-91875752D01*
X164820605Y-91923371D01*
X164868224Y-92018609D01*
X164868224Y-92256704D01*
X164820605Y-92351942D01*
X164772986Y-92399561D01*
X164677748Y-92447180D01*
X164392034Y-92447180D01*
X164296796Y-92399561D01*
X164249177Y-92351942D01*
X162868224Y-88954800D02*
X162772986Y-88907180D01*
X162630129Y-88907180D01*
X162487272Y-88954800D01*
X162392034Y-89050038D01*
X162344415Y-89145276D01*
X162296796Y-89335752D01*
X162296796Y-89478609D01*
X162344415Y-89669085D01*
X162392034Y-89764323D01*
X162487272Y-89859561D01*
X162630129Y-89907180D01*
X162725367Y-89907180D01*
X162868224Y-89859561D01*
X162915843Y-89811942D01*
X162915843Y-89478609D01*
X162725367Y-89478609D01*
X163344415Y-89907180D02*
X163344415Y-88907180D01*
X163725367Y-88907180D01*
X163820605Y-88954800D01*
X163868224Y-89002419D01*
X163915843Y-89097657D01*
X163915843Y-89240514D01*
X163868224Y-89335752D01*
X163820605Y-89383371D01*
X163725367Y-89430990D01*
X163344415Y-89430990D01*
X164296796Y-89002419D02*
X164344415Y-88954800D01*
X164439653Y-88907180D01*
X164677748Y-88907180D01*
X164772986Y-88954800D01*
X164820605Y-89002419D01*
X164868224Y-89097657D01*
X164868224Y-89192895D01*
X164820605Y-89335752D01*
X164249177Y-89907180D01*
X164868224Y-89907180D01*
X162868224Y-86414800D02*
X162772986Y-86367180D01*
X162630129Y-86367180D01*
X162487272Y-86414800D01*
X162392034Y-86510038D01*
X162344415Y-86605276D01*
X162296796Y-86795752D01*
X162296796Y-86938609D01*
X162344415Y-87129085D01*
X162392034Y-87224323D01*
X162487272Y-87319561D01*
X162630129Y-87367180D01*
X162725367Y-87367180D01*
X162868224Y-87319561D01*
X162915843Y-87271942D01*
X162915843Y-86938609D01*
X162725367Y-86938609D01*
X163344415Y-87367180D02*
X163344415Y-86367180D01*
X163725367Y-86367180D01*
X163820605Y-86414800D01*
X163868224Y-86462419D01*
X163915843Y-86557657D01*
X163915843Y-86700514D01*
X163868224Y-86795752D01*
X163820605Y-86843371D01*
X163725367Y-86890990D01*
X163344415Y-86890990D01*
X164868224Y-87367180D02*
X164296796Y-87367180D01*
X164582510Y-87367180D02*
X164582510Y-86367180D01*
X164487272Y-86510038D01*
X164392034Y-86605276D01*
X164296796Y-86652895D01*
X163915843Y-84827180D02*
X163582510Y-84350990D01*
X163344415Y-84827180D02*
X163344415Y-83827180D01*
X163725367Y-83827180D01*
X163820605Y-83874800D01*
X163868224Y-83922419D01*
X163915843Y-84017657D01*
X163915843Y-84160514D01*
X163868224Y-84255752D01*
X163820605Y-84303371D01*
X163725367Y-84350990D01*
X163344415Y-84350990D01*
X164249177Y-83827180D02*
X164915843Y-84827180D01*
X164915843Y-83827180D02*
X164249177Y-84827180D01*
X163439653Y-81287180D02*
X164011081Y-81287180D01*
X163725367Y-82287180D02*
X163725367Y-81287180D01*
X164249177Y-81287180D02*
X164915843Y-82287180D01*
X164915843Y-81287180D02*
X164249177Y-82287180D01*
X122995605Y-99114800D02*
X122900367Y-99067180D01*
X122757510Y-99067180D01*
X122614653Y-99114800D01*
X122519415Y-99210038D01*
X122471796Y-99305276D01*
X122424177Y-99495752D01*
X122424177Y-99638609D01*
X122471796Y-99829085D01*
X122519415Y-99924323D01*
X122614653Y-100019561D01*
X122757510Y-100067180D01*
X122852748Y-100067180D01*
X122995605Y-100019561D01*
X123043224Y-99971942D01*
X123043224Y-99638609D01*
X122852748Y-99638609D01*
X123471796Y-100067180D02*
X123471796Y-99067180D01*
X124043224Y-100067180D01*
X124043224Y-99067180D01*
X124519415Y-100067180D02*
X124519415Y-99067180D01*
X124757510Y-99067180D01*
X124900367Y-99114800D01*
X124995605Y-99210038D01*
X125043224Y-99305276D01*
X125090843Y-99495752D01*
X125090843Y-99638609D01*
X125043224Y-99829085D01*
X124995605Y-99924323D01*
X124900367Y-100019561D01*
X124757510Y-100067180D01*
X124519415Y-100067180D01*
X122376558Y-96527180D02*
X122995605Y-96527180D01*
X122662272Y-96908133D01*
X122805129Y-96908133D01*
X122900367Y-96955752D01*
X122947986Y-97003371D01*
X122995605Y-97098609D01*
X122995605Y-97336704D01*
X122947986Y-97431942D01*
X122900367Y-97479561D01*
X122805129Y-97527180D01*
X122519415Y-97527180D01*
X122424177Y-97479561D01*
X122376558Y-97431942D01*
X123281320Y-96527180D02*
X123614653Y-97527180D01*
X123947986Y-96527180D01*
X124186081Y-96527180D02*
X124805129Y-96527180D01*
X124471796Y-96908133D01*
X124614653Y-96908133D01*
X124709891Y-96955752D01*
X124757510Y-97003371D01*
X124805129Y-97098609D01*
X124805129Y-97336704D01*
X124757510Y-97431942D01*
X124709891Y-97479561D01*
X124614653Y-97527180D01*
X124328939Y-97527180D01*
X124233701Y-97479561D01*
X124186081Y-97431942D01*
X122995605Y-94034800D02*
X122900367Y-93987180D01*
X122757510Y-93987180D01*
X122614653Y-94034800D01*
X122519415Y-94130038D01*
X122471796Y-94225276D01*
X122424177Y-94415752D01*
X122424177Y-94558609D01*
X122471796Y-94749085D01*
X122519415Y-94844323D01*
X122614653Y-94939561D01*
X122757510Y-94987180D01*
X122852748Y-94987180D01*
X122995605Y-94939561D01*
X123043224Y-94891942D01*
X123043224Y-94558609D01*
X122852748Y-94558609D01*
X123471796Y-94987180D02*
X123471796Y-93987180D01*
X123852748Y-93987180D01*
X123947986Y-94034800D01*
X123995605Y-94082419D01*
X124043224Y-94177657D01*
X124043224Y-94320514D01*
X123995605Y-94415752D01*
X123947986Y-94463371D01*
X123852748Y-94510990D01*
X123471796Y-94510990D01*
X124662272Y-93987180D02*
X124757510Y-93987180D01*
X124852748Y-94034800D01*
X124900367Y-94082419D01*
X124947986Y-94177657D01*
X124995605Y-94368133D01*
X124995605Y-94606228D01*
X124947986Y-94796704D01*
X124900367Y-94891942D01*
X124852748Y-94939561D01*
X124757510Y-94987180D01*
X124662272Y-94987180D01*
X124567034Y-94939561D01*
X124519415Y-94891942D01*
X124471796Y-94796704D01*
X124424177Y-94606228D01*
X124424177Y-94368133D01*
X124471796Y-94177657D01*
X124519415Y-94082419D01*
X124567034Y-94034800D01*
X124662272Y-93987180D01*
X122471796Y-92447180D02*
X122471796Y-91447180D01*
X122805129Y-92161466D01*
X123138462Y-91447180D01*
X123138462Y-92447180D01*
X123805129Y-91447180D02*
X123995605Y-91447180D01*
X124090843Y-91494800D01*
X124186081Y-91590038D01*
X124233701Y-91780514D01*
X124233701Y-92113847D01*
X124186081Y-92304323D01*
X124090843Y-92399561D01*
X123995605Y-92447180D01*
X123805129Y-92447180D01*
X123709891Y-92399561D01*
X123614653Y-92304323D01*
X123567034Y-92113847D01*
X123567034Y-91780514D01*
X123614653Y-91590038D01*
X123709891Y-91494800D01*
X123805129Y-91447180D01*
X124614653Y-92399561D02*
X124757510Y-92447180D01*
X124995605Y-92447180D01*
X125090843Y-92399561D01*
X125138462Y-92351942D01*
X125186081Y-92256704D01*
X125186081Y-92161466D01*
X125138462Y-92066228D01*
X125090843Y-92018609D01*
X124995605Y-91970990D01*
X124805129Y-91923371D01*
X124709891Y-91875752D01*
X124662272Y-91828133D01*
X124614653Y-91732895D01*
X124614653Y-91637657D01*
X124662272Y-91542419D01*
X124709891Y-91494800D01*
X124805129Y-91447180D01*
X125043224Y-91447180D01*
X125186081Y-91494800D01*
X125614653Y-92447180D02*
X125614653Y-91447180D01*
X122471796Y-89907180D02*
X122471796Y-88907180D01*
X122805129Y-89621466D01*
X123138462Y-88907180D01*
X123138462Y-89907180D01*
X123614653Y-89907180D02*
X123614653Y-88907180D01*
X124043224Y-89859561D02*
X124186081Y-89907180D01*
X124424177Y-89907180D01*
X124519415Y-89859561D01*
X124567034Y-89811942D01*
X124614653Y-89716704D01*
X124614653Y-89621466D01*
X124567034Y-89526228D01*
X124519415Y-89478609D01*
X124424177Y-89430990D01*
X124233701Y-89383371D01*
X124138462Y-89335752D01*
X124090843Y-89288133D01*
X124043224Y-89192895D01*
X124043224Y-89097657D01*
X124090843Y-89002419D01*
X124138462Y-88954800D01*
X124233701Y-88907180D01*
X124471796Y-88907180D01*
X124614653Y-88954800D01*
X125233701Y-88907180D02*
X125424177Y-88907180D01*
X125519415Y-88954800D01*
X125614653Y-89050038D01*
X125662272Y-89240514D01*
X125662272Y-89573847D01*
X125614653Y-89764323D01*
X125519415Y-89859561D01*
X125424177Y-89907180D01*
X125233701Y-89907180D01*
X125138462Y-89859561D01*
X125043224Y-89764323D01*
X124995605Y-89573847D01*
X124995605Y-89240514D01*
X125043224Y-89050038D01*
X125138462Y-88954800D01*
X125233701Y-88907180D01*
X122424177Y-87319561D02*
X122567034Y-87367180D01*
X122805129Y-87367180D01*
X122900367Y-87319561D01*
X122947986Y-87271942D01*
X122995605Y-87176704D01*
X122995605Y-87081466D01*
X122947986Y-86986228D01*
X122900367Y-86938609D01*
X122805129Y-86890990D01*
X122614653Y-86843371D01*
X122519415Y-86795752D01*
X122471796Y-86748133D01*
X122424177Y-86652895D01*
X122424177Y-86557657D01*
X122471796Y-86462419D01*
X122519415Y-86414800D01*
X122614653Y-86367180D01*
X122852748Y-86367180D01*
X122995605Y-86414800D01*
X123995605Y-87271942D02*
X123947986Y-87319561D01*
X123805129Y-87367180D01*
X123709891Y-87367180D01*
X123567034Y-87319561D01*
X123471796Y-87224323D01*
X123424177Y-87129085D01*
X123376558Y-86938609D01*
X123376558Y-86795752D01*
X123424177Y-86605276D01*
X123471796Y-86510038D01*
X123567034Y-86414800D01*
X123709891Y-86367180D01*
X123805129Y-86367180D01*
X123947986Y-86414800D01*
X123995605Y-86462419D01*
X124424177Y-87367180D02*
X124424177Y-86367180D01*
X124995605Y-87367180D02*
X124567034Y-86795752D01*
X124995605Y-86367180D02*
X124424177Y-86938609D01*
X122424177Y-84779561D02*
X122567034Y-84827180D01*
X122805129Y-84827180D01*
X122900367Y-84779561D01*
X122947986Y-84731942D01*
X122995605Y-84636704D01*
X122995605Y-84541466D01*
X122947986Y-84446228D01*
X122900367Y-84398609D01*
X122805129Y-84350990D01*
X122614653Y-84303371D01*
X122519415Y-84255752D01*
X122471796Y-84208133D01*
X122424177Y-84112895D01*
X122424177Y-84017657D01*
X122471796Y-83922419D01*
X122519415Y-83874800D01*
X122614653Y-83827180D01*
X122852748Y-83827180D01*
X122995605Y-83874800D01*
X123424177Y-84827180D02*
X123424177Y-83827180D01*
X123662272Y-83827180D01*
X123805129Y-83874800D01*
X123900367Y-83970038D01*
X123947986Y-84065276D01*
X123995605Y-84255752D01*
X123995605Y-84398609D01*
X123947986Y-84589085D01*
X123900367Y-84684323D01*
X123805129Y-84779561D01*
X123662272Y-84827180D01*
X123424177Y-84827180D01*
X124376558Y-84541466D02*
X124852748Y-84541466D01*
X124281320Y-84827180D02*
X124614653Y-83827180D01*
X124947986Y-84827180D01*
X122424177Y-82239561D02*
X122567034Y-82287180D01*
X122805129Y-82287180D01*
X122900367Y-82239561D01*
X122947986Y-82191942D01*
X122995605Y-82096704D01*
X122995605Y-82001466D01*
X122947986Y-81906228D01*
X122900367Y-81858609D01*
X122805129Y-81810990D01*
X122614653Y-81763371D01*
X122519415Y-81715752D01*
X122471796Y-81668133D01*
X122424177Y-81572895D01*
X122424177Y-81477657D01*
X122471796Y-81382419D01*
X122519415Y-81334800D01*
X122614653Y-81287180D01*
X122852748Y-81287180D01*
X122995605Y-81334800D01*
X123995605Y-82191942D02*
X123947986Y-82239561D01*
X123805129Y-82287180D01*
X123709891Y-82287180D01*
X123567034Y-82239561D01*
X123471796Y-82144323D01*
X123424177Y-82049085D01*
X123376558Y-81858609D01*
X123376558Y-81715752D01*
X123424177Y-81525276D01*
X123471796Y-81430038D01*
X123567034Y-81334800D01*
X123709891Y-81287180D01*
X123805129Y-81287180D01*
X123947986Y-81334800D01*
X123995605Y-81382419D01*
X124900367Y-82287180D02*
X124424177Y-82287180D01*
X124424177Y-81287180D01*
%TO.C,J1*%
D14*
X142464366Y-82339663D02*
X142464366Y-83246806D01*
X142403890Y-83428235D01*
X142282938Y-83549187D01*
X142101509Y-83609663D01*
X141980557Y-83609663D01*
X143734366Y-83609663D02*
X143008652Y-83609663D01*
X143371509Y-83609663D02*
X143371509Y-82339663D01*
X143250557Y-82521092D01*
X143129604Y-82642044D01*
X143008652Y-82702520D01*
%TO.C,U1*%
D10*
X145594500Y-94289784D02*
X146404024Y-94289784D01*
X146499262Y-94242165D01*
X146546881Y-94194546D01*
X146594500Y-94099308D01*
X146594500Y-93908832D01*
X146546881Y-93813594D01*
X146499262Y-93765975D01*
X146404024Y-93718356D01*
X145594500Y-93718356D01*
X146594500Y-92718356D02*
X146594500Y-93289784D01*
X146594500Y-93004070D02*
X145594500Y-93004070D01*
X145737358Y-93099308D01*
X145832596Y-93194546D01*
X145880215Y-93289784D01*
%TO.C,J2*%
X153765926Y-87864640D02*
X153765926Y-88578926D01*
X153718307Y-88721783D01*
X153623069Y-88817021D01*
X153480212Y-88864640D01*
X153384974Y-88864640D01*
X154194498Y-87959879D02*
X154242117Y-87912260D01*
X154337355Y-87864640D01*
X154575450Y-87864640D01*
X154670688Y-87912260D01*
X154718307Y-87959879D01*
X154765926Y-88055117D01*
X154765926Y-88150355D01*
X154718307Y-88293212D01*
X154146879Y-88864640D01*
X154765926Y-88864640D01*
%TO.C,J3*%
X128040806Y-80816140D02*
X128040806Y-81530426D01*
X127993187Y-81673283D01*
X127897949Y-81768521D01*
X127755092Y-81816140D01*
X127659854Y-81816140D01*
X128421759Y-80816140D02*
X129040806Y-80816140D01*
X128707473Y-81197093D01*
X128850330Y-81197093D01*
X128945568Y-81244712D01*
X128993187Y-81292331D01*
X129040806Y-81387569D01*
X129040806Y-81625664D01*
X128993187Y-81720902D01*
X128945568Y-81768521D01*
X128850330Y-81816140D01*
X128564616Y-81816140D01*
X128469378Y-81768521D01*
X128421759Y-81720902D01*
%TO.C,C1*%
X147158413Y-95457282D02*
X147110794Y-95504901D01*
X146967937Y-95552520D01*
X146872699Y-95552520D01*
X146729841Y-95504901D01*
X146634603Y-95409663D01*
X146586984Y-95314425D01*
X146539365Y-95123949D01*
X146539365Y-94981092D01*
X146586984Y-94790616D01*
X146634603Y-94695378D01*
X146729841Y-94600140D01*
X146872699Y-94552520D01*
X146967937Y-94552520D01*
X147110794Y-94600140D01*
X147158413Y-94647759D01*
X148110794Y-95552520D02*
X147539365Y-95552520D01*
X147825080Y-95552520D02*
X147825080Y-94552520D01*
X147729841Y-94695378D01*
X147634603Y-94790616D01*
X147539365Y-94838235D01*
%TD*%
M02*
