%TF.GenerationSoftware,KiCad,Pcbnew,(5.1.10)-1*%
%TF.CreationDate,2021-11-25T10:31:52+01:00*%
%TF.ProjectId,CLIP_HOSTBOARD,434c4950-5f48-44f5-9354-424f4152442e,rev?*%
%TF.SameCoordinates,Original*%
%TF.FileFunction,Copper,L1,Top*%
%TF.FilePolarity,Positive*%
%FSLAX46Y46*%
G04 Gerber Fmt 4.6, Leading zero omitted, Abs format (unit mm)*
G04 Created by KiCad (PCBNEW (5.1.10)-1) date 2021-11-25 10:31:52*
%MOMM*%
%LPD*%
G01*
G04 APERTURE LIST*
%TA.AperFunction,ComponentPad*%
%ADD10C,1.524000*%
%TD*%
%TA.AperFunction,ComponentPad*%
%ADD11R,1.524000X1.524000*%
%TD*%
%TA.AperFunction,SMDPad,CuDef*%
%ADD12R,0.800000X1.200000*%
%TD*%
%TA.AperFunction,SMDPad,CuDef*%
%ADD13R,1.300000X2.150000*%
%TD*%
%TA.AperFunction,ComponentPad*%
%ADD14R,1.350000X1.350000*%
%TD*%
%TA.AperFunction,ComponentPad*%
%ADD15O,1.350000X1.350000*%
%TD*%
%TA.AperFunction,ViaPad*%
%ADD16C,0.800000*%
%TD*%
%TA.AperFunction,Conductor*%
%ADD17C,0.250000*%
%TD*%
%TA.AperFunction,Conductor*%
%ADD18C,0.254000*%
%TD*%
%TA.AperFunction,Conductor*%
%ADD19C,0.100000*%
%TD*%
G04 APERTURE END LIST*
D10*
%TO.P,S1,16*%
%TO.N,HTX*%
X166426201Y-81834800D03*
%TO.P,S1,15*%
%TO.N,HRX*%
X166426201Y-84374800D03*
%TO.P,S1,14*%
%TO.N,HPYRO1*%
X166426201Y-86914800D03*
%TO.P,S1,13*%
%TO.N,HPYRO2*%
X166426201Y-89454800D03*
%TO.P,S1,12*%
%TO.N,HFREE*%
X166426201Y-91994800D03*
%TO.P,S1,11*%
%TO.N,BFREEIN1*%
X166426201Y-94534800D03*
%TO.P,S1,10*%
%TO.N,Net-(S1-Pad10)*%
X166426201Y-97074800D03*
D11*
%TO.P,S1,9*%
%TO.N,GND*%
X166426201Y-99614800D03*
%TO.P,S1,8*%
X120866201Y-99614800D03*
D10*
%TO.P,S1,7*%
%TO.N,3V3*%
X120866201Y-97074800D03*
%TO.P,S1,6*%
%TO.N,BFREEIN2*%
X120866201Y-94534800D03*
%TO.P,S1,5*%
%TO.N,MOSIFREE*%
X120866201Y-91994800D03*
%TO.P,S1,4*%
%TO.N,MISOFREE*%
X120866201Y-89454800D03*
%TO.P,S1,3*%
%TO.N,SCKFREE*%
X120866201Y-86914800D03*
%TO.P,S1,2*%
%TO.N,SDAFREE*%
X120866201Y-84374800D03*
%TO.P,S1,1*%
%TO.N,SCLFREE*%
X120866201Y-81834800D03*
%TD*%
D12*
%TO.P,J1,1*%
%TO.N,HRX*%
X139762700Y-84635140D03*
%TO.P,J1,2*%
%TO.N,HTX*%
X141012700Y-84635140D03*
%TO.P,J1,3*%
%TO.N,HFREE*%
X142262700Y-84635140D03*
%TO.P,J1,4*%
%TO.N,GND*%
X143512700Y-84635140D03*
%TO.P,J1,5*%
%TO.N,PYRO1*%
X144762700Y-84635140D03*
%TO.P,J1,6*%
%TO.N,PYRO2*%
X146012700Y-84635140D03*
D13*
%TO.P,J1,MP1*%
%TO.N,Net-(J1-PadMP1)*%
X137862700Y-82340140D03*
%TO.P,J1,MP2*%
%TO.N,Net-(J1-PadMP2)*%
X147912700Y-82340140D03*
%TD*%
%TO.P,U1,1*%
%TO.N,Net-(U1-Pad1)*%
%TA.AperFunction,SMDPad,CuDef*%
G36*
G01*
X144542120Y-89927880D02*
X144742120Y-89927880D01*
G75*
G02*
X144842120Y-90027880I0J-100000D01*
G01*
X144842120Y-91302880D01*
G75*
G02*
X144742120Y-91402880I-100000J0D01*
G01*
X144542120Y-91402880D01*
G75*
G02*
X144442120Y-91302880I0J100000D01*
G01*
X144442120Y-90027880D01*
G75*
G02*
X144542120Y-89927880I100000J0D01*
G01*
G37*
%TD.AperFunction*%
%TO.P,U1,2*%
%TO.N,PYRO1*%
%TA.AperFunction,SMDPad,CuDef*%
G36*
G01*
X143892120Y-89927880D02*
X144092120Y-89927880D01*
G75*
G02*
X144192120Y-90027880I0J-100000D01*
G01*
X144192120Y-91302880D01*
G75*
G02*
X144092120Y-91402880I-100000J0D01*
G01*
X143892120Y-91402880D01*
G75*
G02*
X143792120Y-91302880I0J100000D01*
G01*
X143792120Y-90027880D01*
G75*
G02*
X143892120Y-89927880I100000J0D01*
G01*
G37*
%TD.AperFunction*%
%TO.P,U1,3*%
%TO.N,PYRO2*%
%TA.AperFunction,SMDPad,CuDef*%
G36*
G01*
X143242120Y-89927880D02*
X143442120Y-89927880D01*
G75*
G02*
X143542120Y-90027880I0J-100000D01*
G01*
X143542120Y-91302880D01*
G75*
G02*
X143442120Y-91402880I-100000J0D01*
G01*
X143242120Y-91402880D01*
G75*
G02*
X143142120Y-91302880I0J100000D01*
G01*
X143142120Y-90027880D01*
G75*
G02*
X143242120Y-89927880I100000J0D01*
G01*
G37*
%TD.AperFunction*%
%TO.P,U1,4*%
%TO.N,3V3*%
%TA.AperFunction,SMDPad,CuDef*%
G36*
G01*
X142592120Y-89927880D02*
X142792120Y-89927880D01*
G75*
G02*
X142892120Y-90027880I0J-100000D01*
G01*
X142892120Y-91302880D01*
G75*
G02*
X142792120Y-91402880I-100000J0D01*
G01*
X142592120Y-91402880D01*
G75*
G02*
X142492120Y-91302880I0J100000D01*
G01*
X142492120Y-90027880D01*
G75*
G02*
X142592120Y-89927880I100000J0D01*
G01*
G37*
%TD.AperFunction*%
%TO.P,U1,5*%
%TO.N,BFREEOUT1*%
%TA.AperFunction,SMDPad,CuDef*%
G36*
G01*
X141942120Y-89927880D02*
X142142120Y-89927880D01*
G75*
G02*
X142242120Y-90027880I0J-100000D01*
G01*
X142242120Y-91302880D01*
G75*
G02*
X142142120Y-91402880I-100000J0D01*
G01*
X141942120Y-91402880D01*
G75*
G02*
X141842120Y-91302880I0J100000D01*
G01*
X141842120Y-90027880D01*
G75*
G02*
X141942120Y-89927880I100000J0D01*
G01*
G37*
%TD.AperFunction*%
%TO.P,U1,6*%
%TO.N,BFREEOUT2*%
%TA.AperFunction,SMDPad,CuDef*%
G36*
G01*
X141292120Y-89927880D02*
X141492120Y-89927880D01*
G75*
G02*
X141592120Y-90027880I0J-100000D01*
G01*
X141592120Y-91302880D01*
G75*
G02*
X141492120Y-91402880I-100000J0D01*
G01*
X141292120Y-91402880D01*
G75*
G02*
X141192120Y-91302880I0J100000D01*
G01*
X141192120Y-90027880D01*
G75*
G02*
X141292120Y-89927880I100000J0D01*
G01*
G37*
%TD.AperFunction*%
%TO.P,U1,7*%
%TO.N,GND*%
%TA.AperFunction,SMDPad,CuDef*%
G36*
G01*
X140642120Y-89927880D02*
X140842120Y-89927880D01*
G75*
G02*
X140942120Y-90027880I0J-100000D01*
G01*
X140942120Y-91302880D01*
G75*
G02*
X140842120Y-91402880I-100000J0D01*
G01*
X140642120Y-91402880D01*
G75*
G02*
X140542120Y-91302880I0J100000D01*
G01*
X140542120Y-90027880D01*
G75*
G02*
X140642120Y-89927880I100000J0D01*
G01*
G37*
%TD.AperFunction*%
%TO.P,U1,8*%
%TA.AperFunction,SMDPad,CuDef*%
G36*
G01*
X140642120Y-95652880D02*
X140842120Y-95652880D01*
G75*
G02*
X140942120Y-95752880I0J-100000D01*
G01*
X140942120Y-97027880D01*
G75*
G02*
X140842120Y-97127880I-100000J0D01*
G01*
X140642120Y-97127880D01*
G75*
G02*
X140542120Y-97027880I0J100000D01*
G01*
X140542120Y-95752880D01*
G75*
G02*
X140642120Y-95652880I100000J0D01*
G01*
G37*
%TD.AperFunction*%
%TO.P,U1,9*%
%TO.N,BFREEIN2*%
%TA.AperFunction,SMDPad,CuDef*%
G36*
G01*
X141292120Y-95652880D02*
X141492120Y-95652880D01*
G75*
G02*
X141592120Y-95752880I0J-100000D01*
G01*
X141592120Y-97027880D01*
G75*
G02*
X141492120Y-97127880I-100000J0D01*
G01*
X141292120Y-97127880D01*
G75*
G02*
X141192120Y-97027880I0J100000D01*
G01*
X141192120Y-95752880D01*
G75*
G02*
X141292120Y-95652880I100000J0D01*
G01*
G37*
%TD.AperFunction*%
%TO.P,U1,10*%
%TO.N,BFREEIN1*%
%TA.AperFunction,SMDPad,CuDef*%
G36*
G01*
X141942120Y-95652880D02*
X142142120Y-95652880D01*
G75*
G02*
X142242120Y-95752880I0J-100000D01*
G01*
X142242120Y-97027880D01*
G75*
G02*
X142142120Y-97127880I-100000J0D01*
G01*
X141942120Y-97127880D01*
G75*
G02*
X141842120Y-97027880I0J100000D01*
G01*
X141842120Y-95752880D01*
G75*
G02*
X141942120Y-95652880I100000J0D01*
G01*
G37*
%TD.AperFunction*%
%TO.P,U1,11*%
%TO.N,GND*%
%TA.AperFunction,SMDPad,CuDef*%
G36*
G01*
X142592120Y-95652880D02*
X142792120Y-95652880D01*
G75*
G02*
X142892120Y-95752880I0J-100000D01*
G01*
X142892120Y-97027880D01*
G75*
G02*
X142792120Y-97127880I-100000J0D01*
G01*
X142592120Y-97127880D01*
G75*
G02*
X142492120Y-97027880I0J100000D01*
G01*
X142492120Y-95752880D01*
G75*
G02*
X142592120Y-95652880I100000J0D01*
G01*
G37*
%TD.AperFunction*%
%TO.P,U1,12*%
%TO.N,HPYRO2*%
%TA.AperFunction,SMDPad,CuDef*%
G36*
G01*
X143242120Y-95652880D02*
X143442120Y-95652880D01*
G75*
G02*
X143542120Y-95752880I0J-100000D01*
G01*
X143542120Y-97027880D01*
G75*
G02*
X143442120Y-97127880I-100000J0D01*
G01*
X143242120Y-97127880D01*
G75*
G02*
X143142120Y-97027880I0J100000D01*
G01*
X143142120Y-95752880D01*
G75*
G02*
X143242120Y-95652880I100000J0D01*
G01*
G37*
%TD.AperFunction*%
%TO.P,U1,13*%
%TO.N,HPYRO1*%
%TA.AperFunction,SMDPad,CuDef*%
G36*
G01*
X143892120Y-95652880D02*
X144092120Y-95652880D01*
G75*
G02*
X144192120Y-95752880I0J-100000D01*
G01*
X144192120Y-97027880D01*
G75*
G02*
X144092120Y-97127880I-100000J0D01*
G01*
X143892120Y-97127880D01*
G75*
G02*
X143792120Y-97027880I0J100000D01*
G01*
X143792120Y-95752880D01*
G75*
G02*
X143892120Y-95652880I100000J0D01*
G01*
G37*
%TD.AperFunction*%
%TO.P,U1,14*%
%TO.N,3V3*%
%TA.AperFunction,SMDPad,CuDef*%
G36*
G01*
X144542120Y-95652880D02*
X144742120Y-95652880D01*
G75*
G02*
X144842120Y-95752880I0J-100000D01*
G01*
X144842120Y-97027880D01*
G75*
G02*
X144742120Y-97127880I-100000J0D01*
G01*
X144542120Y-97127880D01*
G75*
G02*
X144442120Y-97027880I0J100000D01*
G01*
X144442120Y-95752880D01*
G75*
G02*
X144542120Y-95652880I100000J0D01*
G01*
G37*
%TD.AperFunction*%
%TD*%
D14*
%TO.P,J2,1*%
%TO.N,BFREEOUT1*%
X154099260Y-90472260D03*
D15*
%TO.P,J2,2*%
%TO.N,BFREEOUT2*%
X154099260Y-92472260D03*
%TD*%
D14*
%TO.P,J3,1*%
%TO.N,SCLFREE*%
X128374140Y-83423760D03*
D15*
%TO.P,J3,2*%
%TO.N,SDAFREE*%
X128374140Y-85423760D03*
%TO.P,J3,3*%
%TO.N,SCKFREE*%
X128374140Y-87423760D03*
%TO.P,J3,4*%
%TO.N,MISOFREE*%
X128374140Y-89423760D03*
%TO.P,J3,5*%
%TO.N,MOSIFREE*%
X128374140Y-91423760D03*
%TD*%
%TO.P,C1,1*%
%TO.N,GND*%
%TA.AperFunction,SMDPad,CuDef*%
G36*
G01*
X148514820Y-96310640D02*
X148514820Y-96810640D01*
G75*
G02*
X148289820Y-97035640I-225000J0D01*
G01*
X147839820Y-97035640D01*
G75*
G02*
X147614820Y-96810640I0J225000D01*
G01*
X147614820Y-96310640D01*
G75*
G02*
X147839820Y-96085640I225000J0D01*
G01*
X148289820Y-96085640D01*
G75*
G02*
X148514820Y-96310640I0J-225000D01*
G01*
G37*
%TD.AperFunction*%
%TO.P,C1,2*%
%TO.N,3V3*%
%TA.AperFunction,SMDPad,CuDef*%
G36*
G01*
X146964820Y-96310640D02*
X146964820Y-96810640D01*
G75*
G02*
X146739820Y-97035640I-225000J0D01*
G01*
X146289820Y-97035640D01*
G75*
G02*
X146064820Y-96810640I0J225000D01*
G01*
X146064820Y-96310640D01*
G75*
G02*
X146289820Y-96085640I225000J0D01*
G01*
X146739820Y-96085640D01*
G75*
G02*
X146964820Y-96310640I0J-225000D01*
G01*
G37*
%TD.AperFunction*%
%TD*%
D16*
%TO.N,HRX*%
X139715240Y-86243160D03*
%TO.N,HTX*%
X140990320Y-86263480D03*
%TO.N,HFREE*%
X142262700Y-87914320D03*
%TO.N,GND*%
X136710420Y-90345260D03*
X136789160Y-93972380D03*
X149539960Y-96565720D03*
%TO.N,BFREEOUT1*%
X142074900Y-88902540D03*
%TO.N,BFREEOUT2*%
X140632180Y-88788240D03*
%TO.N,BFREEIN2*%
X141330680Y-98016060D03*
%TO.N,BFREEIN1*%
X142001240Y-98935540D03*
%TD*%
D17*
%TO.N,HRX*%
X139762700Y-86195700D02*
X139715240Y-86243160D01*
X139762700Y-84635140D02*
X139762700Y-86195700D01*
%TO.N,HTX*%
X141012700Y-86241100D02*
X140990320Y-86263480D01*
X141012700Y-84635140D02*
X141012700Y-86241100D01*
%TO.N,HFREE*%
X142262700Y-84635140D02*
X142262700Y-87914320D01*
X142262700Y-87914320D02*
X142262700Y-87914320D01*
X142262700Y-87914320D02*
X142262700Y-87914320D01*
%TO.N,GND*%
X137030540Y-90665380D02*
X136710420Y-90345260D01*
X140742120Y-90665380D02*
X137030540Y-90665380D01*
X140742120Y-96390380D02*
X138714400Y-96390380D01*
X136789160Y-94465140D02*
X136789160Y-93972380D01*
X138714400Y-96390380D02*
X136789160Y-94465140D01*
X140742120Y-96390380D02*
X140742120Y-95175620D01*
X140742120Y-95175620D02*
X141320520Y-94597220D01*
X141320520Y-94597220D02*
X142346680Y-94597220D01*
X142692120Y-94942660D02*
X142692120Y-96390380D01*
X142346680Y-94597220D02*
X142692120Y-94942660D01*
X148069900Y-96565720D02*
X148064820Y-96560640D01*
X149539960Y-96565720D02*
X148069900Y-96565720D01*
%TO.N,PYRO1*%
X143992120Y-90665380D02*
X143992120Y-87092000D01*
X144762700Y-86321420D02*
X144762700Y-84635140D01*
X143992120Y-87092000D02*
X144762700Y-86321420D01*
%TO.N,PYRO2*%
X143342120Y-90665380D02*
X143342120Y-92062060D01*
X143342120Y-92062060D02*
X143781780Y-92501720D01*
X143781780Y-92501720D02*
X146194780Y-92501720D01*
X146194780Y-92501720D02*
X146880580Y-91815920D01*
X146880580Y-85503020D02*
X146012700Y-84635140D01*
X146880580Y-91815920D02*
X146880580Y-85503020D01*
%TO.N,3V3*%
X120866201Y-97074800D02*
X126795720Y-97074800D01*
X126795720Y-97074800D02*
X131536440Y-92334080D01*
X142692120Y-91402880D02*
X142692120Y-90665380D01*
X141760920Y-92334080D02*
X142692120Y-91402880D01*
X131536440Y-92334080D02*
X141760920Y-92334080D01*
X144642120Y-96390380D02*
X144642120Y-94385680D01*
X142590520Y-92334080D02*
X141760920Y-92334080D01*
X144642120Y-94385680D02*
X142590520Y-92334080D01*
X144812380Y-96560640D02*
X144642120Y-96390380D01*
X146514820Y-96560640D02*
X144812380Y-96560640D01*
%TO.N,HPYRO1*%
X143992120Y-96390380D02*
X143992120Y-97840320D01*
X143992120Y-97840320D02*
X144312640Y-98160840D01*
X144312640Y-98160840D02*
X152339040Y-98160840D01*
X163585080Y-86914800D02*
X166426201Y-86914800D01*
X152339040Y-98160840D02*
X163585080Y-86914800D01*
%TO.N,HPYRO2*%
X143342120Y-96390380D02*
X143342120Y-98559380D01*
X143342120Y-98559380D02*
X143718280Y-98935540D01*
X143718280Y-98935540D02*
X153339800Y-98935540D01*
X162820540Y-89454800D02*
X166426201Y-89454800D01*
X153339800Y-98935540D02*
X162820540Y-89454800D01*
%TO.N,BFREEOUT1*%
X142042120Y-88935320D02*
X142074900Y-88902540D01*
X142042120Y-90665380D02*
X142042120Y-88935320D01*
%TO.N,BFREEOUT2*%
X141392120Y-89548180D02*
X140632180Y-88788240D01*
X141392120Y-90665380D02*
X141392120Y-89548180D01*
%TO.N,BFREEIN2*%
X141392120Y-97954620D02*
X141330680Y-98016060D01*
X141392120Y-96390380D02*
X141392120Y-97954620D01*
%TO.N,BFREEIN1*%
X142055681Y-98881099D02*
X142001240Y-98935540D01*
X142055681Y-97668059D02*
X142055681Y-98881099D01*
X142042120Y-97654498D02*
X142055681Y-97668059D01*
X142042120Y-96390380D02*
X142042120Y-97654498D01*
%TD*%
D18*
%TO.N,GND*%
X165341081Y-90345335D02*
X165535666Y-90539920D01*
X165764474Y-90692805D01*
X165841716Y-90724800D01*
X165764474Y-90756795D01*
X165535666Y-90909680D01*
X165341081Y-91104265D01*
X165188196Y-91333073D01*
X165082887Y-91587310D01*
X165029201Y-91857208D01*
X165029201Y-92132392D01*
X165082887Y-92402290D01*
X165188196Y-92656527D01*
X165341081Y-92885335D01*
X165535666Y-93079920D01*
X165764474Y-93232805D01*
X165841716Y-93264800D01*
X165764474Y-93296795D01*
X165535666Y-93449680D01*
X165341081Y-93644265D01*
X165188196Y-93873073D01*
X165082887Y-94127310D01*
X165029201Y-94397208D01*
X165029201Y-94672392D01*
X165082887Y-94942290D01*
X165188196Y-95196527D01*
X165341081Y-95425335D01*
X165535666Y-95619920D01*
X165764474Y-95772805D01*
X165841716Y-95804800D01*
X165764474Y-95836795D01*
X165535666Y-95989680D01*
X165341081Y-96184265D01*
X165188196Y-96413073D01*
X165082887Y-96667310D01*
X165029201Y-96937208D01*
X165029201Y-97212392D01*
X165082887Y-97482290D01*
X165188196Y-97736527D01*
X165341081Y-97965335D01*
X165535666Y-98159920D01*
X165623666Y-98218720D01*
X165539719Y-98226988D01*
X165420021Y-98263298D01*
X165309707Y-98322263D01*
X165213016Y-98401615D01*
X165133664Y-98498306D01*
X165074699Y-98608620D01*
X165038389Y-98728318D01*
X165026129Y-98852800D01*
X165029201Y-99329050D01*
X165187951Y-99487800D01*
X166299201Y-99487800D01*
X166299201Y-99467800D01*
X166553201Y-99467800D01*
X166553201Y-99487800D01*
X166573201Y-99487800D01*
X166573201Y-99741800D01*
X166553201Y-99741800D01*
X166553201Y-99761800D01*
X166299201Y-99761800D01*
X166299201Y-99741800D01*
X165187951Y-99741800D01*
X165029201Y-99900550D01*
X165027334Y-100190000D01*
X122265068Y-100190000D01*
X122263201Y-99900550D01*
X122104451Y-99741800D01*
X120993201Y-99741800D01*
X120993201Y-99761800D01*
X120739201Y-99761800D01*
X120739201Y-99741800D01*
X120719201Y-99741800D01*
X120719201Y-99487800D01*
X120739201Y-99487800D01*
X120739201Y-99467800D01*
X120993201Y-99467800D01*
X120993201Y-99487800D01*
X122104451Y-99487800D01*
X122263201Y-99329050D01*
X122266273Y-98852800D01*
X122254013Y-98728318D01*
X122217703Y-98608620D01*
X122158738Y-98498306D01*
X122079386Y-98401615D01*
X121982695Y-98322263D01*
X121872381Y-98263298D01*
X121752683Y-98226988D01*
X121668736Y-98218720D01*
X121756736Y-98159920D01*
X121951321Y-97965335D01*
X122038542Y-97834800D01*
X126758398Y-97834800D01*
X126795720Y-97838476D01*
X126833042Y-97834800D01*
X126833053Y-97834800D01*
X126944706Y-97823803D01*
X127087967Y-97780346D01*
X127219996Y-97709774D01*
X127335721Y-97614801D01*
X127359524Y-97585797D01*
X131851242Y-93094080D01*
X141723598Y-93094080D01*
X141760920Y-93097756D01*
X141798242Y-93094080D01*
X142275719Y-93094080D01*
X143882121Y-94700483D01*
X143882121Y-95015793D01*
X143748129Y-95028990D01*
X143667120Y-95053564D01*
X143586111Y-95028990D01*
X143442120Y-95014808D01*
X143242120Y-95014808D01*
X143098129Y-95028990D01*
X143061075Y-95040230D01*
X143026003Y-95029012D01*
X142923870Y-95017880D01*
X142765120Y-95176630D01*
X142765120Y-95194139D01*
X142720224Y-95230984D01*
X142692120Y-95265229D01*
X142664016Y-95230984D01*
X142619120Y-95194139D01*
X142619120Y-95176630D01*
X142460370Y-95017880D01*
X142358237Y-95029012D01*
X142323165Y-95040230D01*
X142286111Y-95028990D01*
X142142120Y-95014808D01*
X141942120Y-95014808D01*
X141798129Y-95028990D01*
X141717120Y-95053564D01*
X141636111Y-95028990D01*
X141492120Y-95014808D01*
X141292120Y-95014808D01*
X141148129Y-95028990D01*
X141111075Y-95040230D01*
X141076003Y-95029012D01*
X140973870Y-95017880D01*
X140815120Y-95176630D01*
X140815120Y-95194139D01*
X140770224Y-95230984D01*
X140678436Y-95342829D01*
X140669120Y-95360258D01*
X140669120Y-95176630D01*
X140510370Y-95017880D01*
X140408237Y-95029012D01*
X140289099Y-95067119D01*
X140179684Y-95127736D01*
X140084198Y-95208534D01*
X140006309Y-95306409D01*
X139949011Y-95417598D01*
X139914506Y-95537828D01*
X139904120Y-95662480D01*
X139907120Y-96104630D01*
X140065870Y-96263380D01*
X140554048Y-96263380D01*
X140554048Y-96517380D01*
X140065870Y-96517380D01*
X139907120Y-96676130D01*
X139904120Y-97118280D01*
X139914506Y-97242932D01*
X139949011Y-97363162D01*
X140006309Y-97474351D01*
X140084198Y-97572226D01*
X140179684Y-97653024D01*
X140289099Y-97713641D01*
X140332779Y-97727612D01*
X140295680Y-97914121D01*
X140295680Y-98117999D01*
X140335454Y-98317958D01*
X140413475Y-98506316D01*
X140526743Y-98675834D01*
X140670906Y-98819997D01*
X140840424Y-98933265D01*
X140966240Y-98985380D01*
X140966240Y-99037479D01*
X141006014Y-99237438D01*
X141084035Y-99425796D01*
X141197303Y-99595314D01*
X141341466Y-99739477D01*
X141510984Y-99852745D01*
X141699342Y-99930766D01*
X141899301Y-99970540D01*
X142103179Y-99970540D01*
X142303138Y-99930766D01*
X142491496Y-99852745D01*
X142661014Y-99739477D01*
X142805177Y-99595314D01*
X142918445Y-99425796D01*
X142981502Y-99273563D01*
X143154476Y-99446537D01*
X143178279Y-99475541D01*
X143294004Y-99570514D01*
X143405484Y-99630102D01*
X143426033Y-99641086D01*
X143569294Y-99684543D01*
X143718280Y-99699217D01*
X143755613Y-99695540D01*
X153302478Y-99695540D01*
X153339800Y-99699216D01*
X153377122Y-99695540D01*
X153377133Y-99695540D01*
X153488786Y-99684543D01*
X153632047Y-99641086D01*
X153764076Y-99570514D01*
X153879801Y-99475541D01*
X153903604Y-99446537D01*
X163135342Y-90214800D01*
X165253860Y-90214800D01*
X165341081Y-90345335D01*
%TA.AperFunction,Conductor*%
D19*
G36*
X165341081Y-90345335D02*
G01*
X165535666Y-90539920D01*
X165764474Y-90692805D01*
X165841716Y-90724800D01*
X165764474Y-90756795D01*
X165535666Y-90909680D01*
X165341081Y-91104265D01*
X165188196Y-91333073D01*
X165082887Y-91587310D01*
X165029201Y-91857208D01*
X165029201Y-92132392D01*
X165082887Y-92402290D01*
X165188196Y-92656527D01*
X165341081Y-92885335D01*
X165535666Y-93079920D01*
X165764474Y-93232805D01*
X165841716Y-93264800D01*
X165764474Y-93296795D01*
X165535666Y-93449680D01*
X165341081Y-93644265D01*
X165188196Y-93873073D01*
X165082887Y-94127310D01*
X165029201Y-94397208D01*
X165029201Y-94672392D01*
X165082887Y-94942290D01*
X165188196Y-95196527D01*
X165341081Y-95425335D01*
X165535666Y-95619920D01*
X165764474Y-95772805D01*
X165841716Y-95804800D01*
X165764474Y-95836795D01*
X165535666Y-95989680D01*
X165341081Y-96184265D01*
X165188196Y-96413073D01*
X165082887Y-96667310D01*
X165029201Y-96937208D01*
X165029201Y-97212392D01*
X165082887Y-97482290D01*
X165188196Y-97736527D01*
X165341081Y-97965335D01*
X165535666Y-98159920D01*
X165623666Y-98218720D01*
X165539719Y-98226988D01*
X165420021Y-98263298D01*
X165309707Y-98322263D01*
X165213016Y-98401615D01*
X165133664Y-98498306D01*
X165074699Y-98608620D01*
X165038389Y-98728318D01*
X165026129Y-98852800D01*
X165029201Y-99329050D01*
X165187951Y-99487800D01*
X166299201Y-99487800D01*
X166299201Y-99467800D01*
X166553201Y-99467800D01*
X166553201Y-99487800D01*
X166573201Y-99487800D01*
X166573201Y-99741800D01*
X166553201Y-99741800D01*
X166553201Y-99761800D01*
X166299201Y-99761800D01*
X166299201Y-99741800D01*
X165187951Y-99741800D01*
X165029201Y-99900550D01*
X165027334Y-100190000D01*
X122265068Y-100190000D01*
X122263201Y-99900550D01*
X122104451Y-99741800D01*
X120993201Y-99741800D01*
X120993201Y-99761800D01*
X120739201Y-99761800D01*
X120739201Y-99741800D01*
X120719201Y-99741800D01*
X120719201Y-99487800D01*
X120739201Y-99487800D01*
X120739201Y-99467800D01*
X120993201Y-99467800D01*
X120993201Y-99487800D01*
X122104451Y-99487800D01*
X122263201Y-99329050D01*
X122266273Y-98852800D01*
X122254013Y-98728318D01*
X122217703Y-98608620D01*
X122158738Y-98498306D01*
X122079386Y-98401615D01*
X121982695Y-98322263D01*
X121872381Y-98263298D01*
X121752683Y-98226988D01*
X121668736Y-98218720D01*
X121756736Y-98159920D01*
X121951321Y-97965335D01*
X122038542Y-97834800D01*
X126758398Y-97834800D01*
X126795720Y-97838476D01*
X126833042Y-97834800D01*
X126833053Y-97834800D01*
X126944706Y-97823803D01*
X127087967Y-97780346D01*
X127219996Y-97709774D01*
X127335721Y-97614801D01*
X127359524Y-97585797D01*
X131851242Y-93094080D01*
X141723598Y-93094080D01*
X141760920Y-93097756D01*
X141798242Y-93094080D01*
X142275719Y-93094080D01*
X143882121Y-94700483D01*
X143882121Y-95015793D01*
X143748129Y-95028990D01*
X143667120Y-95053564D01*
X143586111Y-95028990D01*
X143442120Y-95014808D01*
X143242120Y-95014808D01*
X143098129Y-95028990D01*
X143061075Y-95040230D01*
X143026003Y-95029012D01*
X142923870Y-95017880D01*
X142765120Y-95176630D01*
X142765120Y-95194139D01*
X142720224Y-95230984D01*
X142692120Y-95265229D01*
X142664016Y-95230984D01*
X142619120Y-95194139D01*
X142619120Y-95176630D01*
X142460370Y-95017880D01*
X142358237Y-95029012D01*
X142323165Y-95040230D01*
X142286111Y-95028990D01*
X142142120Y-95014808D01*
X141942120Y-95014808D01*
X141798129Y-95028990D01*
X141717120Y-95053564D01*
X141636111Y-95028990D01*
X141492120Y-95014808D01*
X141292120Y-95014808D01*
X141148129Y-95028990D01*
X141111075Y-95040230D01*
X141076003Y-95029012D01*
X140973870Y-95017880D01*
X140815120Y-95176630D01*
X140815120Y-95194139D01*
X140770224Y-95230984D01*
X140678436Y-95342829D01*
X140669120Y-95360258D01*
X140669120Y-95176630D01*
X140510370Y-95017880D01*
X140408237Y-95029012D01*
X140289099Y-95067119D01*
X140179684Y-95127736D01*
X140084198Y-95208534D01*
X140006309Y-95306409D01*
X139949011Y-95417598D01*
X139914506Y-95537828D01*
X139904120Y-95662480D01*
X139907120Y-96104630D01*
X140065870Y-96263380D01*
X140554048Y-96263380D01*
X140554048Y-96517380D01*
X140065870Y-96517380D01*
X139907120Y-96676130D01*
X139904120Y-97118280D01*
X139914506Y-97242932D01*
X139949011Y-97363162D01*
X140006309Y-97474351D01*
X140084198Y-97572226D01*
X140179684Y-97653024D01*
X140289099Y-97713641D01*
X140332779Y-97727612D01*
X140295680Y-97914121D01*
X140295680Y-98117999D01*
X140335454Y-98317958D01*
X140413475Y-98506316D01*
X140526743Y-98675834D01*
X140670906Y-98819997D01*
X140840424Y-98933265D01*
X140966240Y-98985380D01*
X140966240Y-99037479D01*
X141006014Y-99237438D01*
X141084035Y-99425796D01*
X141197303Y-99595314D01*
X141341466Y-99739477D01*
X141510984Y-99852745D01*
X141699342Y-99930766D01*
X141899301Y-99970540D01*
X142103179Y-99970540D01*
X142303138Y-99930766D01*
X142491496Y-99852745D01*
X142661014Y-99739477D01*
X142805177Y-99595314D01*
X142918445Y-99425796D01*
X142981502Y-99273563D01*
X143154476Y-99446537D01*
X143178279Y-99475541D01*
X143294004Y-99570514D01*
X143405484Y-99630102D01*
X143426033Y-99641086D01*
X143569294Y-99684543D01*
X143718280Y-99699217D01*
X143755613Y-99695540D01*
X153302478Y-99695540D01*
X153339800Y-99699216D01*
X153377122Y-99695540D01*
X153377133Y-99695540D01*
X153488786Y-99684543D01*
X153632047Y-99641086D01*
X153764076Y-99570514D01*
X153879801Y-99475541D01*
X153903604Y-99446537D01*
X163135342Y-90214800D01*
X165253860Y-90214800D01*
X165341081Y-90345335D01*
G37*
%TD.AperFunction*%
D18*
X165082887Y-81427310D02*
X165029201Y-81697208D01*
X165029201Y-81972392D01*
X165082887Y-82242290D01*
X165188196Y-82496527D01*
X165341081Y-82725335D01*
X165535666Y-82919920D01*
X165764474Y-83072805D01*
X165841716Y-83104800D01*
X165764474Y-83136795D01*
X165535666Y-83289680D01*
X165341081Y-83484265D01*
X165188196Y-83713073D01*
X165082887Y-83967310D01*
X165029201Y-84237208D01*
X165029201Y-84512392D01*
X165082887Y-84782290D01*
X165188196Y-85036527D01*
X165341081Y-85265335D01*
X165535666Y-85459920D01*
X165764474Y-85612805D01*
X165841716Y-85644800D01*
X165764474Y-85676795D01*
X165535666Y-85829680D01*
X165341081Y-86024265D01*
X165253860Y-86154800D01*
X163622402Y-86154800D01*
X163585079Y-86151124D01*
X163547756Y-86154800D01*
X163547747Y-86154800D01*
X163436094Y-86165797D01*
X163292833Y-86209254D01*
X163160804Y-86279826D01*
X163045079Y-86374799D01*
X163021281Y-86403797D01*
X152024239Y-97400840D01*
X149036571Y-97400840D01*
X149045357Y-97390134D01*
X149104322Y-97279820D01*
X149140632Y-97160122D01*
X149152892Y-97035640D01*
X149149820Y-96846390D01*
X148991070Y-96687640D01*
X148191820Y-96687640D01*
X148191820Y-96707640D01*
X147937820Y-96707640D01*
X147937820Y-96687640D01*
X147917820Y-96687640D01*
X147917820Y-96433640D01*
X147937820Y-96433640D01*
X147937820Y-95609390D01*
X148191820Y-95609390D01*
X148191820Y-96433640D01*
X148991070Y-96433640D01*
X149149820Y-96274890D01*
X149152892Y-96085640D01*
X149140632Y-95961158D01*
X149104322Y-95841460D01*
X149045357Y-95731146D01*
X148966005Y-95634455D01*
X148869314Y-95555103D01*
X148759000Y-95496138D01*
X148639302Y-95459828D01*
X148514820Y-95447568D01*
X148350570Y-95450640D01*
X148191820Y-95609390D01*
X147937820Y-95609390D01*
X147779070Y-95450640D01*
X147614820Y-95447568D01*
X147490338Y-95459828D01*
X147370640Y-95496138D01*
X147260326Y-95555103D01*
X147216171Y-95591340D01*
X147070103Y-95513265D01*
X146908197Y-95464152D01*
X146739820Y-95447568D01*
X146289820Y-95447568D01*
X146121443Y-95464152D01*
X145959537Y-95513265D01*
X145810323Y-95593022D01*
X145679536Y-95700356D01*
X145597235Y-95800640D01*
X145480192Y-95800640D01*
X145480192Y-95752880D01*
X145466010Y-95608889D01*
X145424010Y-95470432D01*
X145402120Y-95429479D01*
X145402120Y-94423013D01*
X145405797Y-94385680D01*
X145391123Y-94236694D01*
X145347666Y-94093433D01*
X145277094Y-93961404D01*
X145205919Y-93874677D01*
X145182121Y-93845679D01*
X145153123Y-93821881D01*
X144592962Y-93261720D01*
X146157458Y-93261720D01*
X146194780Y-93265396D01*
X146232102Y-93261720D01*
X146232113Y-93261720D01*
X146343766Y-93250723D01*
X146487027Y-93207266D01*
X146619056Y-93136694D01*
X146734781Y-93041721D01*
X146758583Y-93012718D01*
X147391584Y-92379718D01*
X147420581Y-92355921D01*
X147515554Y-92240196D01*
X147586126Y-92108167D01*
X147629583Y-91964906D01*
X147640580Y-91853253D01*
X147640580Y-91853245D01*
X147644256Y-91815920D01*
X147640580Y-91778595D01*
X147640580Y-89797260D01*
X152786188Y-89797260D01*
X152786188Y-91147260D01*
X152798448Y-91271742D01*
X152834758Y-91391440D01*
X152893723Y-91501754D01*
X152973075Y-91598445D01*
X153059957Y-91669747D01*
X152938353Y-91851742D01*
X152839602Y-92090147D01*
X152789260Y-92343236D01*
X152789260Y-92601284D01*
X152839602Y-92854373D01*
X152938353Y-93092778D01*
X153081716Y-93307337D01*
X153264183Y-93489804D01*
X153478742Y-93633167D01*
X153717147Y-93731918D01*
X153970236Y-93782260D01*
X154228284Y-93782260D01*
X154481373Y-93731918D01*
X154719778Y-93633167D01*
X154934337Y-93489804D01*
X155116804Y-93307337D01*
X155260167Y-93092778D01*
X155358918Y-92854373D01*
X155409260Y-92601284D01*
X155409260Y-92343236D01*
X155358918Y-92090147D01*
X155260167Y-91851742D01*
X155138563Y-91669747D01*
X155225445Y-91598445D01*
X155304797Y-91501754D01*
X155363762Y-91391440D01*
X155400072Y-91271742D01*
X155412332Y-91147260D01*
X155412332Y-89797260D01*
X155400072Y-89672778D01*
X155363762Y-89553080D01*
X155304797Y-89442766D01*
X155225445Y-89346075D01*
X155128754Y-89266723D01*
X155018440Y-89207758D01*
X154898742Y-89171448D01*
X154774260Y-89159188D01*
X153424260Y-89159188D01*
X153299778Y-89171448D01*
X153180080Y-89207758D01*
X153069766Y-89266723D01*
X152973075Y-89346075D01*
X152893723Y-89442766D01*
X152834758Y-89553080D01*
X152798448Y-89672778D01*
X152786188Y-89797260D01*
X147640580Y-89797260D01*
X147640580Y-85540345D01*
X147644256Y-85503020D01*
X147640580Y-85465695D01*
X147640580Y-85465687D01*
X147629583Y-85354034D01*
X147586126Y-85210773D01*
X147515554Y-85078744D01*
X147420581Y-84963019D01*
X147391583Y-84939221D01*
X147050772Y-84598410D01*
X147050772Y-84035140D01*
X147048669Y-84013788D01*
X147138218Y-84040952D01*
X147262700Y-84053212D01*
X148562700Y-84053212D01*
X148687182Y-84040952D01*
X148806880Y-84004642D01*
X148917194Y-83945677D01*
X149013885Y-83866325D01*
X149093237Y-83769634D01*
X149152202Y-83659320D01*
X149188512Y-83539622D01*
X149200772Y-83415140D01*
X149200772Y-81265140D01*
X149195341Y-81210000D01*
X165172900Y-81210000D01*
X165082887Y-81427310D01*
%TA.AperFunction,Conductor*%
D19*
G36*
X165082887Y-81427310D02*
G01*
X165029201Y-81697208D01*
X165029201Y-81972392D01*
X165082887Y-82242290D01*
X165188196Y-82496527D01*
X165341081Y-82725335D01*
X165535666Y-82919920D01*
X165764474Y-83072805D01*
X165841716Y-83104800D01*
X165764474Y-83136795D01*
X165535666Y-83289680D01*
X165341081Y-83484265D01*
X165188196Y-83713073D01*
X165082887Y-83967310D01*
X165029201Y-84237208D01*
X165029201Y-84512392D01*
X165082887Y-84782290D01*
X165188196Y-85036527D01*
X165341081Y-85265335D01*
X165535666Y-85459920D01*
X165764474Y-85612805D01*
X165841716Y-85644800D01*
X165764474Y-85676795D01*
X165535666Y-85829680D01*
X165341081Y-86024265D01*
X165253860Y-86154800D01*
X163622402Y-86154800D01*
X163585079Y-86151124D01*
X163547756Y-86154800D01*
X163547747Y-86154800D01*
X163436094Y-86165797D01*
X163292833Y-86209254D01*
X163160804Y-86279826D01*
X163045079Y-86374799D01*
X163021281Y-86403797D01*
X152024239Y-97400840D01*
X149036571Y-97400840D01*
X149045357Y-97390134D01*
X149104322Y-97279820D01*
X149140632Y-97160122D01*
X149152892Y-97035640D01*
X149149820Y-96846390D01*
X148991070Y-96687640D01*
X148191820Y-96687640D01*
X148191820Y-96707640D01*
X147937820Y-96707640D01*
X147937820Y-96687640D01*
X147917820Y-96687640D01*
X147917820Y-96433640D01*
X147937820Y-96433640D01*
X147937820Y-95609390D01*
X148191820Y-95609390D01*
X148191820Y-96433640D01*
X148991070Y-96433640D01*
X149149820Y-96274890D01*
X149152892Y-96085640D01*
X149140632Y-95961158D01*
X149104322Y-95841460D01*
X149045357Y-95731146D01*
X148966005Y-95634455D01*
X148869314Y-95555103D01*
X148759000Y-95496138D01*
X148639302Y-95459828D01*
X148514820Y-95447568D01*
X148350570Y-95450640D01*
X148191820Y-95609390D01*
X147937820Y-95609390D01*
X147779070Y-95450640D01*
X147614820Y-95447568D01*
X147490338Y-95459828D01*
X147370640Y-95496138D01*
X147260326Y-95555103D01*
X147216171Y-95591340D01*
X147070103Y-95513265D01*
X146908197Y-95464152D01*
X146739820Y-95447568D01*
X146289820Y-95447568D01*
X146121443Y-95464152D01*
X145959537Y-95513265D01*
X145810323Y-95593022D01*
X145679536Y-95700356D01*
X145597235Y-95800640D01*
X145480192Y-95800640D01*
X145480192Y-95752880D01*
X145466010Y-95608889D01*
X145424010Y-95470432D01*
X145402120Y-95429479D01*
X145402120Y-94423013D01*
X145405797Y-94385680D01*
X145391123Y-94236694D01*
X145347666Y-94093433D01*
X145277094Y-93961404D01*
X145205919Y-93874677D01*
X145182121Y-93845679D01*
X145153123Y-93821881D01*
X144592962Y-93261720D01*
X146157458Y-93261720D01*
X146194780Y-93265396D01*
X146232102Y-93261720D01*
X146232113Y-93261720D01*
X146343766Y-93250723D01*
X146487027Y-93207266D01*
X146619056Y-93136694D01*
X146734781Y-93041721D01*
X146758583Y-93012718D01*
X147391584Y-92379718D01*
X147420581Y-92355921D01*
X147515554Y-92240196D01*
X147586126Y-92108167D01*
X147629583Y-91964906D01*
X147640580Y-91853253D01*
X147640580Y-91853245D01*
X147644256Y-91815920D01*
X147640580Y-91778595D01*
X147640580Y-89797260D01*
X152786188Y-89797260D01*
X152786188Y-91147260D01*
X152798448Y-91271742D01*
X152834758Y-91391440D01*
X152893723Y-91501754D01*
X152973075Y-91598445D01*
X153059957Y-91669747D01*
X152938353Y-91851742D01*
X152839602Y-92090147D01*
X152789260Y-92343236D01*
X152789260Y-92601284D01*
X152839602Y-92854373D01*
X152938353Y-93092778D01*
X153081716Y-93307337D01*
X153264183Y-93489804D01*
X153478742Y-93633167D01*
X153717147Y-93731918D01*
X153970236Y-93782260D01*
X154228284Y-93782260D01*
X154481373Y-93731918D01*
X154719778Y-93633167D01*
X154934337Y-93489804D01*
X155116804Y-93307337D01*
X155260167Y-93092778D01*
X155358918Y-92854373D01*
X155409260Y-92601284D01*
X155409260Y-92343236D01*
X155358918Y-92090147D01*
X155260167Y-91851742D01*
X155138563Y-91669747D01*
X155225445Y-91598445D01*
X155304797Y-91501754D01*
X155363762Y-91391440D01*
X155400072Y-91271742D01*
X155412332Y-91147260D01*
X155412332Y-89797260D01*
X155400072Y-89672778D01*
X155363762Y-89553080D01*
X155304797Y-89442766D01*
X155225445Y-89346075D01*
X155128754Y-89266723D01*
X155018440Y-89207758D01*
X154898742Y-89171448D01*
X154774260Y-89159188D01*
X153424260Y-89159188D01*
X153299778Y-89171448D01*
X153180080Y-89207758D01*
X153069766Y-89266723D01*
X152973075Y-89346075D01*
X152893723Y-89442766D01*
X152834758Y-89553080D01*
X152798448Y-89672778D01*
X152786188Y-89797260D01*
X147640580Y-89797260D01*
X147640580Y-85540345D01*
X147644256Y-85503020D01*
X147640580Y-85465695D01*
X147640580Y-85465687D01*
X147629583Y-85354034D01*
X147586126Y-85210773D01*
X147515554Y-85078744D01*
X147420581Y-84963019D01*
X147391583Y-84939221D01*
X147050772Y-84598410D01*
X147050772Y-84035140D01*
X147048669Y-84013788D01*
X147138218Y-84040952D01*
X147262700Y-84053212D01*
X148562700Y-84053212D01*
X148687182Y-84040952D01*
X148806880Y-84004642D01*
X148917194Y-83945677D01*
X149013885Y-83866325D01*
X149093237Y-83769634D01*
X149152202Y-83659320D01*
X149188512Y-83539622D01*
X149200772Y-83415140D01*
X149200772Y-81265140D01*
X149195341Y-81210000D01*
X165172900Y-81210000D01*
X165082887Y-81427310D01*
G37*
%TD.AperFunction*%
D18*
X136574628Y-81265140D02*
X136574628Y-83415140D01*
X136586888Y-83539622D01*
X136623198Y-83659320D01*
X136682163Y-83769634D01*
X136761515Y-83866325D01*
X136858206Y-83945677D01*
X136968520Y-84004642D01*
X137088218Y-84040952D01*
X137212700Y-84053212D01*
X138512700Y-84053212D01*
X138637182Y-84040952D01*
X138726731Y-84013788D01*
X138724628Y-84035140D01*
X138724628Y-85235140D01*
X138736888Y-85359622D01*
X138773198Y-85479320D01*
X138832163Y-85589634D01*
X138873485Y-85639985D01*
X138798035Y-85752904D01*
X138720014Y-85941262D01*
X138680240Y-86141221D01*
X138680240Y-86345099D01*
X138720014Y-86545058D01*
X138798035Y-86733416D01*
X138911303Y-86902934D01*
X139055466Y-87047097D01*
X139224984Y-87160365D01*
X139413342Y-87238386D01*
X139613301Y-87278160D01*
X139817179Y-87278160D01*
X140017138Y-87238386D01*
X140205496Y-87160365D01*
X140337574Y-87072113D01*
X140500064Y-87180685D01*
X140688422Y-87258706D01*
X140888381Y-87298480D01*
X141092259Y-87298480D01*
X141292218Y-87258706D01*
X141480576Y-87180685D01*
X141502701Y-87165902D01*
X141502701Y-87210608D01*
X141458763Y-87254546D01*
X141345495Y-87424064D01*
X141267474Y-87612422D01*
X141227700Y-87812381D01*
X141227700Y-87941370D01*
X141122436Y-87871035D01*
X140934078Y-87793014D01*
X140734119Y-87753240D01*
X140530241Y-87753240D01*
X140330282Y-87793014D01*
X140141924Y-87871035D01*
X139972406Y-87984303D01*
X139828243Y-88128466D01*
X139714975Y-88297984D01*
X139636954Y-88486342D01*
X139597180Y-88686301D01*
X139597180Y-88890179D01*
X139636954Y-89090138D01*
X139714975Y-89278496D01*
X139828243Y-89448014D01*
X139972406Y-89592177D01*
X139993498Y-89606270D01*
X139949011Y-89692598D01*
X139914506Y-89812828D01*
X139904120Y-89937480D01*
X139907120Y-90379630D01*
X140065870Y-90538380D01*
X140554048Y-90538380D01*
X140554048Y-90792380D01*
X140065870Y-90792380D01*
X139907120Y-90951130D01*
X139904120Y-91393280D01*
X139914506Y-91517932D01*
X139930620Y-91574080D01*
X131573773Y-91574080D01*
X131536440Y-91570403D01*
X131499107Y-91574080D01*
X131387454Y-91585077D01*
X131244193Y-91628534D01*
X131112164Y-91699106D01*
X130996439Y-91794079D01*
X130972641Y-91823077D01*
X126480919Y-96314800D01*
X122038542Y-96314800D01*
X121951321Y-96184265D01*
X121756736Y-95989680D01*
X121527928Y-95836795D01*
X121450686Y-95804800D01*
X121527928Y-95772805D01*
X121756736Y-95619920D01*
X121951321Y-95425335D01*
X122104206Y-95196527D01*
X122209515Y-94942290D01*
X122263201Y-94672392D01*
X122263201Y-94397208D01*
X122209515Y-94127310D01*
X122104206Y-93873073D01*
X121951321Y-93644265D01*
X121756736Y-93449680D01*
X121527928Y-93296795D01*
X121450686Y-93264800D01*
X121527928Y-93232805D01*
X121756736Y-93079920D01*
X121951321Y-92885335D01*
X122104206Y-92656527D01*
X122209515Y-92402290D01*
X122263201Y-92132392D01*
X122263201Y-91857208D01*
X122209515Y-91587310D01*
X122104206Y-91333073D01*
X121951321Y-91104265D01*
X121756736Y-90909680D01*
X121527928Y-90756795D01*
X121450686Y-90724800D01*
X121527928Y-90692805D01*
X121756736Y-90539920D01*
X121951321Y-90345335D01*
X122104206Y-90116527D01*
X122209515Y-89862290D01*
X122263201Y-89592392D01*
X122263201Y-89317208D01*
X122209515Y-89047310D01*
X122104206Y-88793073D01*
X121951321Y-88564265D01*
X121756736Y-88369680D01*
X121527928Y-88216795D01*
X121450686Y-88184800D01*
X121527928Y-88152805D01*
X121756736Y-87999920D01*
X121951321Y-87805335D01*
X122104206Y-87576527D01*
X122209515Y-87322290D01*
X122263201Y-87052392D01*
X122263201Y-86777208D01*
X122209515Y-86507310D01*
X122104206Y-86253073D01*
X121951321Y-86024265D01*
X121756736Y-85829680D01*
X121527928Y-85676795D01*
X121450686Y-85644800D01*
X121527928Y-85612805D01*
X121756736Y-85459920D01*
X121951321Y-85265335D01*
X122104206Y-85036527D01*
X122209515Y-84782290D01*
X122263201Y-84512392D01*
X122263201Y-84237208D01*
X122209515Y-83967310D01*
X122104206Y-83713073D01*
X121951321Y-83484265D01*
X121756736Y-83289680D01*
X121527928Y-83136795D01*
X121450686Y-83104800D01*
X121527928Y-83072805D01*
X121756736Y-82919920D01*
X121927896Y-82748760D01*
X127061068Y-82748760D01*
X127061068Y-84098760D01*
X127073328Y-84223242D01*
X127109638Y-84342940D01*
X127168603Y-84453254D01*
X127247955Y-84549945D01*
X127334837Y-84621247D01*
X127213233Y-84803242D01*
X127114482Y-85041647D01*
X127064140Y-85294736D01*
X127064140Y-85552784D01*
X127114482Y-85805873D01*
X127213233Y-86044278D01*
X127356596Y-86258837D01*
X127521519Y-86423760D01*
X127356596Y-86588683D01*
X127213233Y-86803242D01*
X127114482Y-87041647D01*
X127064140Y-87294736D01*
X127064140Y-87552784D01*
X127114482Y-87805873D01*
X127213233Y-88044278D01*
X127356596Y-88258837D01*
X127521519Y-88423760D01*
X127356596Y-88588683D01*
X127213233Y-88803242D01*
X127114482Y-89041647D01*
X127064140Y-89294736D01*
X127064140Y-89552784D01*
X127114482Y-89805873D01*
X127213233Y-90044278D01*
X127356596Y-90258837D01*
X127521519Y-90423760D01*
X127356596Y-90588683D01*
X127213233Y-90803242D01*
X127114482Y-91041647D01*
X127064140Y-91294736D01*
X127064140Y-91552784D01*
X127114482Y-91805873D01*
X127213233Y-92044278D01*
X127356596Y-92258837D01*
X127539063Y-92441304D01*
X127753622Y-92584667D01*
X127992027Y-92683418D01*
X128245116Y-92733760D01*
X128503164Y-92733760D01*
X128756253Y-92683418D01*
X128994658Y-92584667D01*
X129209217Y-92441304D01*
X129391684Y-92258837D01*
X129535047Y-92044278D01*
X129633798Y-91805873D01*
X129684140Y-91552784D01*
X129684140Y-91294736D01*
X129633798Y-91041647D01*
X129535047Y-90803242D01*
X129391684Y-90588683D01*
X129226761Y-90423760D01*
X129391684Y-90258837D01*
X129535047Y-90044278D01*
X129633798Y-89805873D01*
X129684140Y-89552784D01*
X129684140Y-89294736D01*
X129633798Y-89041647D01*
X129535047Y-88803242D01*
X129391684Y-88588683D01*
X129226761Y-88423760D01*
X129391684Y-88258837D01*
X129535047Y-88044278D01*
X129633798Y-87805873D01*
X129684140Y-87552784D01*
X129684140Y-87294736D01*
X129633798Y-87041647D01*
X129535047Y-86803242D01*
X129391684Y-86588683D01*
X129226761Y-86423760D01*
X129391684Y-86258837D01*
X129535047Y-86044278D01*
X129633798Y-85805873D01*
X129684140Y-85552784D01*
X129684140Y-85294736D01*
X129633798Y-85041647D01*
X129535047Y-84803242D01*
X129413443Y-84621247D01*
X129500325Y-84549945D01*
X129579677Y-84453254D01*
X129638642Y-84342940D01*
X129674952Y-84223242D01*
X129687212Y-84098760D01*
X129687212Y-82748760D01*
X129674952Y-82624278D01*
X129638642Y-82504580D01*
X129579677Y-82394266D01*
X129500325Y-82297575D01*
X129403634Y-82218223D01*
X129293320Y-82159258D01*
X129173622Y-82122948D01*
X129049140Y-82110688D01*
X127699140Y-82110688D01*
X127574658Y-82122948D01*
X127454960Y-82159258D01*
X127344646Y-82218223D01*
X127247955Y-82297575D01*
X127168603Y-82394266D01*
X127109638Y-82504580D01*
X127073328Y-82624278D01*
X127061068Y-82748760D01*
X121927896Y-82748760D01*
X121951321Y-82725335D01*
X122104206Y-82496527D01*
X122209515Y-82242290D01*
X122263201Y-81972392D01*
X122263201Y-81697208D01*
X122209515Y-81427310D01*
X122119502Y-81210000D01*
X136580059Y-81210000D01*
X136574628Y-81265140D01*
%TA.AperFunction,Conductor*%
D19*
G36*
X136574628Y-81265140D02*
G01*
X136574628Y-83415140D01*
X136586888Y-83539622D01*
X136623198Y-83659320D01*
X136682163Y-83769634D01*
X136761515Y-83866325D01*
X136858206Y-83945677D01*
X136968520Y-84004642D01*
X137088218Y-84040952D01*
X137212700Y-84053212D01*
X138512700Y-84053212D01*
X138637182Y-84040952D01*
X138726731Y-84013788D01*
X138724628Y-84035140D01*
X138724628Y-85235140D01*
X138736888Y-85359622D01*
X138773198Y-85479320D01*
X138832163Y-85589634D01*
X138873485Y-85639985D01*
X138798035Y-85752904D01*
X138720014Y-85941262D01*
X138680240Y-86141221D01*
X138680240Y-86345099D01*
X138720014Y-86545058D01*
X138798035Y-86733416D01*
X138911303Y-86902934D01*
X139055466Y-87047097D01*
X139224984Y-87160365D01*
X139413342Y-87238386D01*
X139613301Y-87278160D01*
X139817179Y-87278160D01*
X140017138Y-87238386D01*
X140205496Y-87160365D01*
X140337574Y-87072113D01*
X140500064Y-87180685D01*
X140688422Y-87258706D01*
X140888381Y-87298480D01*
X141092259Y-87298480D01*
X141292218Y-87258706D01*
X141480576Y-87180685D01*
X141502701Y-87165902D01*
X141502701Y-87210608D01*
X141458763Y-87254546D01*
X141345495Y-87424064D01*
X141267474Y-87612422D01*
X141227700Y-87812381D01*
X141227700Y-87941370D01*
X141122436Y-87871035D01*
X140934078Y-87793014D01*
X140734119Y-87753240D01*
X140530241Y-87753240D01*
X140330282Y-87793014D01*
X140141924Y-87871035D01*
X139972406Y-87984303D01*
X139828243Y-88128466D01*
X139714975Y-88297984D01*
X139636954Y-88486342D01*
X139597180Y-88686301D01*
X139597180Y-88890179D01*
X139636954Y-89090138D01*
X139714975Y-89278496D01*
X139828243Y-89448014D01*
X139972406Y-89592177D01*
X139993498Y-89606270D01*
X139949011Y-89692598D01*
X139914506Y-89812828D01*
X139904120Y-89937480D01*
X139907120Y-90379630D01*
X140065870Y-90538380D01*
X140554048Y-90538380D01*
X140554048Y-90792380D01*
X140065870Y-90792380D01*
X139907120Y-90951130D01*
X139904120Y-91393280D01*
X139914506Y-91517932D01*
X139930620Y-91574080D01*
X131573773Y-91574080D01*
X131536440Y-91570403D01*
X131499107Y-91574080D01*
X131387454Y-91585077D01*
X131244193Y-91628534D01*
X131112164Y-91699106D01*
X130996439Y-91794079D01*
X130972641Y-91823077D01*
X126480919Y-96314800D01*
X122038542Y-96314800D01*
X121951321Y-96184265D01*
X121756736Y-95989680D01*
X121527928Y-95836795D01*
X121450686Y-95804800D01*
X121527928Y-95772805D01*
X121756736Y-95619920D01*
X121951321Y-95425335D01*
X122104206Y-95196527D01*
X122209515Y-94942290D01*
X122263201Y-94672392D01*
X122263201Y-94397208D01*
X122209515Y-94127310D01*
X122104206Y-93873073D01*
X121951321Y-93644265D01*
X121756736Y-93449680D01*
X121527928Y-93296795D01*
X121450686Y-93264800D01*
X121527928Y-93232805D01*
X121756736Y-93079920D01*
X121951321Y-92885335D01*
X122104206Y-92656527D01*
X122209515Y-92402290D01*
X122263201Y-92132392D01*
X122263201Y-91857208D01*
X122209515Y-91587310D01*
X122104206Y-91333073D01*
X121951321Y-91104265D01*
X121756736Y-90909680D01*
X121527928Y-90756795D01*
X121450686Y-90724800D01*
X121527928Y-90692805D01*
X121756736Y-90539920D01*
X121951321Y-90345335D01*
X122104206Y-90116527D01*
X122209515Y-89862290D01*
X122263201Y-89592392D01*
X122263201Y-89317208D01*
X122209515Y-89047310D01*
X122104206Y-88793073D01*
X121951321Y-88564265D01*
X121756736Y-88369680D01*
X121527928Y-88216795D01*
X121450686Y-88184800D01*
X121527928Y-88152805D01*
X121756736Y-87999920D01*
X121951321Y-87805335D01*
X122104206Y-87576527D01*
X122209515Y-87322290D01*
X122263201Y-87052392D01*
X122263201Y-86777208D01*
X122209515Y-86507310D01*
X122104206Y-86253073D01*
X121951321Y-86024265D01*
X121756736Y-85829680D01*
X121527928Y-85676795D01*
X121450686Y-85644800D01*
X121527928Y-85612805D01*
X121756736Y-85459920D01*
X121951321Y-85265335D01*
X122104206Y-85036527D01*
X122209515Y-84782290D01*
X122263201Y-84512392D01*
X122263201Y-84237208D01*
X122209515Y-83967310D01*
X122104206Y-83713073D01*
X121951321Y-83484265D01*
X121756736Y-83289680D01*
X121527928Y-83136795D01*
X121450686Y-83104800D01*
X121527928Y-83072805D01*
X121756736Y-82919920D01*
X121927896Y-82748760D01*
X127061068Y-82748760D01*
X127061068Y-84098760D01*
X127073328Y-84223242D01*
X127109638Y-84342940D01*
X127168603Y-84453254D01*
X127247955Y-84549945D01*
X127334837Y-84621247D01*
X127213233Y-84803242D01*
X127114482Y-85041647D01*
X127064140Y-85294736D01*
X127064140Y-85552784D01*
X127114482Y-85805873D01*
X127213233Y-86044278D01*
X127356596Y-86258837D01*
X127521519Y-86423760D01*
X127356596Y-86588683D01*
X127213233Y-86803242D01*
X127114482Y-87041647D01*
X127064140Y-87294736D01*
X127064140Y-87552784D01*
X127114482Y-87805873D01*
X127213233Y-88044278D01*
X127356596Y-88258837D01*
X127521519Y-88423760D01*
X127356596Y-88588683D01*
X127213233Y-88803242D01*
X127114482Y-89041647D01*
X127064140Y-89294736D01*
X127064140Y-89552784D01*
X127114482Y-89805873D01*
X127213233Y-90044278D01*
X127356596Y-90258837D01*
X127521519Y-90423760D01*
X127356596Y-90588683D01*
X127213233Y-90803242D01*
X127114482Y-91041647D01*
X127064140Y-91294736D01*
X127064140Y-91552784D01*
X127114482Y-91805873D01*
X127213233Y-92044278D01*
X127356596Y-92258837D01*
X127539063Y-92441304D01*
X127753622Y-92584667D01*
X127992027Y-92683418D01*
X128245116Y-92733760D01*
X128503164Y-92733760D01*
X128756253Y-92683418D01*
X128994658Y-92584667D01*
X129209217Y-92441304D01*
X129391684Y-92258837D01*
X129535047Y-92044278D01*
X129633798Y-91805873D01*
X129684140Y-91552784D01*
X129684140Y-91294736D01*
X129633798Y-91041647D01*
X129535047Y-90803242D01*
X129391684Y-90588683D01*
X129226761Y-90423760D01*
X129391684Y-90258837D01*
X129535047Y-90044278D01*
X129633798Y-89805873D01*
X129684140Y-89552784D01*
X129684140Y-89294736D01*
X129633798Y-89041647D01*
X129535047Y-88803242D01*
X129391684Y-88588683D01*
X129226761Y-88423760D01*
X129391684Y-88258837D01*
X129535047Y-88044278D01*
X129633798Y-87805873D01*
X129684140Y-87552784D01*
X129684140Y-87294736D01*
X129633798Y-87041647D01*
X129535047Y-86803242D01*
X129391684Y-86588683D01*
X129226761Y-86423760D01*
X129391684Y-86258837D01*
X129535047Y-86044278D01*
X129633798Y-85805873D01*
X129684140Y-85552784D01*
X129684140Y-85294736D01*
X129633798Y-85041647D01*
X129535047Y-84803242D01*
X129413443Y-84621247D01*
X129500325Y-84549945D01*
X129579677Y-84453254D01*
X129638642Y-84342940D01*
X129674952Y-84223242D01*
X129687212Y-84098760D01*
X129687212Y-82748760D01*
X129674952Y-82624278D01*
X129638642Y-82504580D01*
X129579677Y-82394266D01*
X129500325Y-82297575D01*
X129403634Y-82218223D01*
X129293320Y-82159258D01*
X129173622Y-82122948D01*
X129049140Y-82110688D01*
X127699140Y-82110688D01*
X127574658Y-82122948D01*
X127454960Y-82159258D01*
X127344646Y-82218223D01*
X127247955Y-82297575D01*
X127168603Y-82394266D01*
X127109638Y-82504580D01*
X127073328Y-82624278D01*
X127061068Y-82748760D01*
X121927896Y-82748760D01*
X121951321Y-82725335D01*
X122104206Y-82496527D01*
X122209515Y-82242290D01*
X122263201Y-81972392D01*
X122263201Y-81697208D01*
X122209515Y-81427310D01*
X122119502Y-81210000D01*
X136580059Y-81210000D01*
X136574628Y-81265140D01*
G37*
%TD.AperFunction*%
D18*
X146624628Y-81265140D02*
X146624628Y-83415140D01*
X146626731Y-83436492D01*
X146537182Y-83409328D01*
X146412700Y-83397068D01*
X145612700Y-83397068D01*
X145488218Y-83409328D01*
X145387700Y-83439820D01*
X145287182Y-83409328D01*
X145162700Y-83397068D01*
X144362700Y-83397068D01*
X144238218Y-83409328D01*
X144137700Y-83439820D01*
X144037182Y-83409328D01*
X143912700Y-83397068D01*
X143798450Y-83400140D01*
X143639700Y-83558890D01*
X143639700Y-84508140D01*
X143659700Y-84508140D01*
X143659700Y-84762140D01*
X143639700Y-84762140D01*
X143639700Y-85711390D01*
X143798450Y-85870140D01*
X143912700Y-85873212D01*
X144002700Y-85864348D01*
X144002700Y-86006618D01*
X143481118Y-86528201D01*
X143452120Y-86551999D01*
X143428322Y-86580997D01*
X143428321Y-86580998D01*
X143357146Y-86667724D01*
X143286574Y-86799754D01*
X143263424Y-86876074D01*
X143243118Y-86943014D01*
X143237035Y-87004777D01*
X143228444Y-87092000D01*
X143232121Y-87129332D01*
X143232121Y-87550123D01*
X143179905Y-87424064D01*
X143066637Y-87254546D01*
X143022700Y-87210609D01*
X143022700Y-85864348D01*
X143112700Y-85873212D01*
X143226950Y-85870140D01*
X143385700Y-85711390D01*
X143385700Y-84762140D01*
X143365700Y-84762140D01*
X143365700Y-84508140D01*
X143385700Y-84508140D01*
X143385700Y-83558890D01*
X143226950Y-83400140D01*
X143112700Y-83397068D01*
X142988218Y-83409328D01*
X142887700Y-83439820D01*
X142787182Y-83409328D01*
X142662700Y-83397068D01*
X141862700Y-83397068D01*
X141738218Y-83409328D01*
X141637700Y-83439820D01*
X141537182Y-83409328D01*
X141412700Y-83397068D01*
X140612700Y-83397068D01*
X140488218Y-83409328D01*
X140387700Y-83439820D01*
X140287182Y-83409328D01*
X140162700Y-83397068D01*
X139362700Y-83397068D01*
X139238218Y-83409328D01*
X139148669Y-83436492D01*
X139150772Y-83415140D01*
X139150772Y-81265140D01*
X139145341Y-81210000D01*
X146630059Y-81210000D01*
X146624628Y-81265140D01*
%TA.AperFunction,Conductor*%
D19*
G36*
X146624628Y-81265140D02*
G01*
X146624628Y-83415140D01*
X146626731Y-83436492D01*
X146537182Y-83409328D01*
X146412700Y-83397068D01*
X145612700Y-83397068D01*
X145488218Y-83409328D01*
X145387700Y-83439820D01*
X145287182Y-83409328D01*
X145162700Y-83397068D01*
X144362700Y-83397068D01*
X144238218Y-83409328D01*
X144137700Y-83439820D01*
X144037182Y-83409328D01*
X143912700Y-83397068D01*
X143798450Y-83400140D01*
X143639700Y-83558890D01*
X143639700Y-84508140D01*
X143659700Y-84508140D01*
X143659700Y-84762140D01*
X143639700Y-84762140D01*
X143639700Y-85711390D01*
X143798450Y-85870140D01*
X143912700Y-85873212D01*
X144002700Y-85864348D01*
X144002700Y-86006618D01*
X143481118Y-86528201D01*
X143452120Y-86551999D01*
X143428322Y-86580997D01*
X143428321Y-86580998D01*
X143357146Y-86667724D01*
X143286574Y-86799754D01*
X143263424Y-86876074D01*
X143243118Y-86943014D01*
X143237035Y-87004777D01*
X143228444Y-87092000D01*
X143232121Y-87129332D01*
X143232121Y-87550123D01*
X143179905Y-87424064D01*
X143066637Y-87254546D01*
X143022700Y-87210609D01*
X143022700Y-85864348D01*
X143112700Y-85873212D01*
X143226950Y-85870140D01*
X143385700Y-85711390D01*
X143385700Y-84762140D01*
X143365700Y-84762140D01*
X143365700Y-84508140D01*
X143385700Y-84508140D01*
X143385700Y-83558890D01*
X143226950Y-83400140D01*
X143112700Y-83397068D01*
X142988218Y-83409328D01*
X142887700Y-83439820D01*
X142787182Y-83409328D01*
X142662700Y-83397068D01*
X141862700Y-83397068D01*
X141738218Y-83409328D01*
X141637700Y-83439820D01*
X141537182Y-83409328D01*
X141412700Y-83397068D01*
X140612700Y-83397068D01*
X140488218Y-83409328D01*
X140387700Y-83439820D01*
X140287182Y-83409328D01*
X140162700Y-83397068D01*
X139362700Y-83397068D01*
X139238218Y-83409328D01*
X139148669Y-83436492D01*
X139150772Y-83415140D01*
X139150772Y-81265140D01*
X139145341Y-81210000D01*
X146630059Y-81210000D01*
X146624628Y-81265140D01*
G37*
%TD.AperFunction*%
%TD*%
M02*
