%TF.GenerationSoftware,KiCad,Pcbnew,(5.1.10)-1*%
%TF.CreationDate,2021-11-25T14:23:59+01:00*%
%TF.ProjectId,CLIP_HOSTBOARD,434c4950-5f48-44f5-9354-424f4152442e,rev?*%
%TF.SameCoordinates,Original*%
%TF.FileFunction,Copper,L2,Bot*%
%TF.FilePolarity,Positive*%
%FSLAX46Y46*%
G04 Gerber Fmt 4.6, Leading zero omitted, Abs format (unit mm)*
G04 Created by KiCad (PCBNEW (5.1.10)-1) date 2021-11-25 14:23:59*
%MOMM*%
%LPD*%
G01*
G04 APERTURE LIST*
%TA.AperFunction,ComponentPad*%
%ADD10C,1.524000*%
%TD*%
%TA.AperFunction,ComponentPad*%
%ADD11R,1.524000X1.524000*%
%TD*%
%TA.AperFunction,ComponentPad*%
%ADD12R,1.350000X1.350000*%
%TD*%
%TA.AperFunction,ComponentPad*%
%ADD13O,1.350000X1.350000*%
%TD*%
%TA.AperFunction,ViaPad*%
%ADD14C,0.800000*%
%TD*%
%TA.AperFunction,Conductor*%
%ADD15C,0.250000*%
%TD*%
%TA.AperFunction,Conductor*%
%ADD16C,0.254000*%
%TD*%
%TA.AperFunction,Conductor*%
%ADD17C,0.100000*%
%TD*%
G04 APERTURE END LIST*
D10*
%TO.P,S1,16*%
%TO.N,HTX*%
X166426201Y-81834800D03*
%TO.P,S1,15*%
%TO.N,HRX*%
X166426201Y-84374800D03*
%TO.P,S1,14*%
%TO.N,HPYRO1*%
X166426201Y-86914800D03*
%TO.P,S1,13*%
%TO.N,HPYRO2*%
X166426201Y-89454800D03*
%TO.P,S1,12*%
%TO.N,HFREE*%
X166426201Y-91994800D03*
%TO.P,S1,11*%
%TO.N,BFREEIN1*%
X166426201Y-94534800D03*
%TO.P,S1,10*%
%TO.N,Net-(S1-Pad10)*%
X166426201Y-97074800D03*
D11*
%TO.P,S1,9*%
%TO.N,GND*%
X166426201Y-99614800D03*
%TO.P,S1,8*%
X120866201Y-99614800D03*
D10*
%TO.P,S1,7*%
%TO.N,3V3*%
X120866201Y-97074800D03*
%TO.P,S1,6*%
%TO.N,BFREEIN2*%
X120866201Y-94534800D03*
%TO.P,S1,5*%
%TO.N,MOSIFREE*%
X120866201Y-91994800D03*
%TO.P,S1,4*%
%TO.N,MISOFREE*%
X120866201Y-89454800D03*
%TO.P,S1,3*%
%TO.N,SCKFREE*%
X120866201Y-86914800D03*
%TO.P,S1,2*%
%TO.N,SDAFREE*%
X120866201Y-84374800D03*
%TO.P,S1,1*%
%TO.N,SCLFREE*%
X120866201Y-81834800D03*
%TD*%
D12*
%TO.P,J2,1*%
%TO.N,BFREEOUT1*%
X154099260Y-90472260D03*
D13*
%TO.P,J2,2*%
%TO.N,BFREEOUT2*%
X154099260Y-92472260D03*
%TD*%
D12*
%TO.P,J3,1*%
%TO.N,SCLFREE*%
X128374140Y-83423760D03*
D13*
%TO.P,J3,2*%
%TO.N,SDAFREE*%
X128374140Y-85423760D03*
%TO.P,J3,3*%
%TO.N,SCKFREE*%
X128374140Y-87423760D03*
%TO.P,J3,4*%
%TO.N,MISOFREE*%
X128374140Y-89423760D03*
%TO.P,J3,5*%
%TO.N,MOSIFREE*%
X128374140Y-91423760D03*
%TD*%
D14*
%TO.N,HRX*%
X139715240Y-86243160D03*
%TO.N,HTX*%
X140990320Y-86263480D03*
%TO.N,HFREE*%
X142262700Y-87914320D03*
%TO.N,GND*%
X136710420Y-90345260D03*
X136789160Y-93972380D03*
X149539960Y-96565720D03*
X144612360Y-82697320D03*
%TO.N,BFREEOUT1*%
X142074900Y-88902540D03*
%TO.N,BFREEOUT2*%
X140632180Y-88788240D03*
%TO.N,BFREEIN2*%
X141330680Y-98016060D03*
%TO.N,BFREEIN1*%
X142001240Y-98935540D03*
%TD*%
D15*
%TO.N,HRX*%
X140460561Y-86988481D02*
X158337419Y-86988481D01*
X139715240Y-86243160D02*
X140460561Y-86988481D01*
X160951100Y-84374800D02*
X166426201Y-84374800D01*
X158337419Y-86988481D02*
X160951100Y-84374800D01*
%TO.N,HTX*%
X140990320Y-86263480D02*
X157055820Y-86263480D01*
X161484500Y-81834800D02*
X166426201Y-81834800D01*
X157055820Y-86263480D02*
X161484500Y-81834800D01*
%TO.N,HFREE*%
X142262700Y-87914320D02*
X155869480Y-87914320D01*
X159949960Y-91994800D02*
X166426201Y-91994800D01*
X155869480Y-87914320D02*
X159949960Y-91994800D01*
%TO.N,BFREEOUT1*%
X142074900Y-88902540D02*
X148026120Y-88902540D01*
X149595840Y-90472260D02*
X154099260Y-90472260D01*
X148026120Y-88902540D02*
X149595840Y-90472260D01*
%TO.N,BFREEOUT2*%
X140632180Y-88788240D02*
X140632180Y-91373960D01*
X141730480Y-92472260D02*
X154099260Y-92472260D01*
X140632180Y-91373960D02*
X141730480Y-92472260D01*
%TO.N,SCLFREE*%
X126785180Y-81834800D02*
X128374140Y-83423760D01*
X120866201Y-81834800D02*
X126785180Y-81834800D01*
%TO.N,SDAFREE*%
X120866201Y-84374800D02*
X124862400Y-84374800D01*
X125911360Y-85423760D02*
X128374140Y-85423760D01*
X124862400Y-84374800D02*
X125911360Y-85423760D01*
%TO.N,SCKFREE*%
X120866201Y-86914800D02*
X125665040Y-86914800D01*
X126174000Y-87423760D02*
X128374140Y-87423760D01*
X125665040Y-86914800D02*
X126174000Y-87423760D01*
%TO.N,MISOFREE*%
X128343100Y-89454800D02*
X128374140Y-89423760D01*
X120866201Y-89454800D02*
X128343100Y-89454800D01*
%TO.N,MOSIFREE*%
X120866201Y-91994800D02*
X124720540Y-91994800D01*
X125291580Y-91423760D02*
X128374140Y-91423760D01*
X124720540Y-91994800D02*
X125291580Y-91423760D01*
%TO.N,BFREEIN2*%
X141330680Y-98016060D02*
X127584200Y-98016060D01*
X124102940Y-94534800D02*
X120866201Y-94534800D01*
X127584200Y-98016060D02*
X124102940Y-94534800D01*
%TO.N,BFREEIN1*%
X142001240Y-98935540D02*
X157568900Y-98935540D01*
X161969640Y-94534800D02*
X166426201Y-94534800D01*
X157568900Y-98935540D02*
X161969640Y-94534800D01*
%TD*%
D16*
%TO.N,GND*%
X127020401Y-98527063D02*
X127044199Y-98556061D01*
X127073197Y-98579859D01*
X127159923Y-98651034D01*
X127291953Y-98721606D01*
X127435214Y-98765063D01*
X127546867Y-98776060D01*
X127546876Y-98776060D01*
X127584199Y-98779736D01*
X127621522Y-98776060D01*
X140626969Y-98776060D01*
X140670906Y-98819997D01*
X140840424Y-98933265D01*
X140966240Y-98985380D01*
X140966240Y-99037479D01*
X141006014Y-99237438D01*
X141084035Y-99425796D01*
X141197303Y-99595314D01*
X141341466Y-99739477D01*
X141510984Y-99852745D01*
X141699342Y-99930766D01*
X141899301Y-99970540D01*
X142103179Y-99970540D01*
X142303138Y-99930766D01*
X142491496Y-99852745D01*
X142661014Y-99739477D01*
X142704951Y-99695540D01*
X157531578Y-99695540D01*
X157568900Y-99699216D01*
X157606222Y-99695540D01*
X157606233Y-99695540D01*
X157717886Y-99684543D01*
X157861147Y-99641086D01*
X157993176Y-99570514D01*
X158108901Y-99475541D01*
X158132704Y-99446537D01*
X162284442Y-95294800D01*
X165253860Y-95294800D01*
X165341081Y-95425335D01*
X165535666Y-95619920D01*
X165764474Y-95772805D01*
X165841716Y-95804800D01*
X165764474Y-95836795D01*
X165535666Y-95989680D01*
X165341081Y-96184265D01*
X165188196Y-96413073D01*
X165082887Y-96667310D01*
X165029201Y-96937208D01*
X165029201Y-97212392D01*
X165082887Y-97482290D01*
X165188196Y-97736527D01*
X165341081Y-97965335D01*
X165535666Y-98159920D01*
X165623666Y-98218720D01*
X165539719Y-98226988D01*
X165420021Y-98263298D01*
X165309707Y-98322263D01*
X165213016Y-98401615D01*
X165133664Y-98498306D01*
X165074699Y-98608620D01*
X165038389Y-98728318D01*
X165026129Y-98852800D01*
X165029201Y-99329050D01*
X165187951Y-99487800D01*
X166299201Y-99487800D01*
X166299201Y-99467800D01*
X166553201Y-99467800D01*
X166553201Y-99487800D01*
X166573201Y-99487800D01*
X166573201Y-99741800D01*
X166553201Y-99741800D01*
X166553201Y-99761800D01*
X166299201Y-99761800D01*
X166299201Y-99741800D01*
X165187951Y-99741800D01*
X165029201Y-99900550D01*
X165027334Y-100190000D01*
X122265068Y-100190000D01*
X122263201Y-99900550D01*
X122104451Y-99741800D01*
X120993201Y-99741800D01*
X120993201Y-99761800D01*
X120739201Y-99761800D01*
X120739201Y-99741800D01*
X120719201Y-99741800D01*
X120719201Y-99487800D01*
X120739201Y-99487800D01*
X120739201Y-99467800D01*
X120993201Y-99467800D01*
X120993201Y-99487800D01*
X122104451Y-99487800D01*
X122263201Y-99329050D01*
X122266273Y-98852800D01*
X122254013Y-98728318D01*
X122217703Y-98608620D01*
X122158738Y-98498306D01*
X122079386Y-98401615D01*
X121982695Y-98322263D01*
X121872381Y-98263298D01*
X121752683Y-98226988D01*
X121668736Y-98218720D01*
X121756736Y-98159920D01*
X121951321Y-97965335D01*
X122104206Y-97736527D01*
X122209515Y-97482290D01*
X122263201Y-97212392D01*
X122263201Y-96937208D01*
X122209515Y-96667310D01*
X122104206Y-96413073D01*
X121951321Y-96184265D01*
X121756736Y-95989680D01*
X121527928Y-95836795D01*
X121450686Y-95804800D01*
X121527928Y-95772805D01*
X121756736Y-95619920D01*
X121951321Y-95425335D01*
X122038542Y-95294800D01*
X123788139Y-95294800D01*
X127020401Y-98527063D01*
%TA.AperFunction,Conductor*%
D17*
G36*
X127020401Y-98527063D02*
G01*
X127044199Y-98556061D01*
X127073197Y-98579859D01*
X127159923Y-98651034D01*
X127291953Y-98721606D01*
X127435214Y-98765063D01*
X127546867Y-98776060D01*
X127546876Y-98776060D01*
X127584199Y-98779736D01*
X127621522Y-98776060D01*
X140626969Y-98776060D01*
X140670906Y-98819997D01*
X140840424Y-98933265D01*
X140966240Y-98985380D01*
X140966240Y-99037479D01*
X141006014Y-99237438D01*
X141084035Y-99425796D01*
X141197303Y-99595314D01*
X141341466Y-99739477D01*
X141510984Y-99852745D01*
X141699342Y-99930766D01*
X141899301Y-99970540D01*
X142103179Y-99970540D01*
X142303138Y-99930766D01*
X142491496Y-99852745D01*
X142661014Y-99739477D01*
X142704951Y-99695540D01*
X157531578Y-99695540D01*
X157568900Y-99699216D01*
X157606222Y-99695540D01*
X157606233Y-99695540D01*
X157717886Y-99684543D01*
X157861147Y-99641086D01*
X157993176Y-99570514D01*
X158108901Y-99475541D01*
X158132704Y-99446537D01*
X162284442Y-95294800D01*
X165253860Y-95294800D01*
X165341081Y-95425335D01*
X165535666Y-95619920D01*
X165764474Y-95772805D01*
X165841716Y-95804800D01*
X165764474Y-95836795D01*
X165535666Y-95989680D01*
X165341081Y-96184265D01*
X165188196Y-96413073D01*
X165082887Y-96667310D01*
X165029201Y-96937208D01*
X165029201Y-97212392D01*
X165082887Y-97482290D01*
X165188196Y-97736527D01*
X165341081Y-97965335D01*
X165535666Y-98159920D01*
X165623666Y-98218720D01*
X165539719Y-98226988D01*
X165420021Y-98263298D01*
X165309707Y-98322263D01*
X165213016Y-98401615D01*
X165133664Y-98498306D01*
X165074699Y-98608620D01*
X165038389Y-98728318D01*
X165026129Y-98852800D01*
X165029201Y-99329050D01*
X165187951Y-99487800D01*
X166299201Y-99487800D01*
X166299201Y-99467800D01*
X166553201Y-99467800D01*
X166553201Y-99487800D01*
X166573201Y-99487800D01*
X166573201Y-99741800D01*
X166553201Y-99741800D01*
X166553201Y-99761800D01*
X166299201Y-99761800D01*
X166299201Y-99741800D01*
X165187951Y-99741800D01*
X165029201Y-99900550D01*
X165027334Y-100190000D01*
X122265068Y-100190000D01*
X122263201Y-99900550D01*
X122104451Y-99741800D01*
X120993201Y-99741800D01*
X120993201Y-99761800D01*
X120739201Y-99761800D01*
X120739201Y-99741800D01*
X120719201Y-99741800D01*
X120719201Y-99487800D01*
X120739201Y-99487800D01*
X120739201Y-99467800D01*
X120993201Y-99467800D01*
X120993201Y-99487800D01*
X122104451Y-99487800D01*
X122263201Y-99329050D01*
X122266273Y-98852800D01*
X122254013Y-98728318D01*
X122217703Y-98608620D01*
X122158738Y-98498306D01*
X122079386Y-98401615D01*
X121982695Y-98322263D01*
X121872381Y-98263298D01*
X121752683Y-98226988D01*
X121668736Y-98218720D01*
X121756736Y-98159920D01*
X121951321Y-97965335D01*
X122104206Y-97736527D01*
X122209515Y-97482290D01*
X122263201Y-97212392D01*
X122263201Y-96937208D01*
X122209515Y-96667310D01*
X122104206Y-96413073D01*
X121951321Y-96184265D01*
X121756736Y-95989680D01*
X121527928Y-95836795D01*
X121450686Y-95804800D01*
X121527928Y-95772805D01*
X121756736Y-95619920D01*
X121951321Y-95425335D01*
X122038542Y-95294800D01*
X123788139Y-95294800D01*
X127020401Y-98527063D01*
G37*
%TD.AperFunction*%
D16*
X160944499Y-81294799D02*
X160920701Y-81323797D01*
X156741019Y-85503480D01*
X141694031Y-85503480D01*
X141650094Y-85459543D01*
X141480576Y-85346275D01*
X141292218Y-85268254D01*
X141092259Y-85228480D01*
X140888381Y-85228480D01*
X140688422Y-85268254D01*
X140500064Y-85346275D01*
X140367986Y-85434527D01*
X140205496Y-85325955D01*
X140017138Y-85247934D01*
X139817179Y-85208160D01*
X139613301Y-85208160D01*
X139413342Y-85247934D01*
X139224984Y-85325955D01*
X139055466Y-85439223D01*
X138911303Y-85583386D01*
X138798035Y-85752904D01*
X138720014Y-85941262D01*
X138680240Y-86141221D01*
X138680240Y-86345099D01*
X138720014Y-86545058D01*
X138798035Y-86733416D01*
X138911303Y-86902934D01*
X139055466Y-87047097D01*
X139224984Y-87160365D01*
X139413342Y-87238386D01*
X139613301Y-87278160D01*
X139675438Y-87278160D01*
X139896762Y-87499483D01*
X139920560Y-87528482D01*
X139949558Y-87552280D01*
X140036284Y-87623455D01*
X140132343Y-87674800D01*
X140168314Y-87694027D01*
X140311575Y-87737484D01*
X140423228Y-87748481D01*
X140423237Y-87748481D01*
X140460560Y-87752157D01*
X140497883Y-87748481D01*
X141240410Y-87748481D01*
X141227700Y-87812381D01*
X141227700Y-87941370D01*
X141122436Y-87871035D01*
X140934078Y-87793014D01*
X140734119Y-87753240D01*
X140530241Y-87753240D01*
X140330282Y-87793014D01*
X140141924Y-87871035D01*
X139972406Y-87984303D01*
X139828243Y-88128466D01*
X139714975Y-88297984D01*
X139636954Y-88486342D01*
X139597180Y-88686301D01*
X139597180Y-88890179D01*
X139636954Y-89090138D01*
X139714975Y-89278496D01*
X139828243Y-89448014D01*
X139872180Y-89491951D01*
X139872181Y-91336628D01*
X139868504Y-91373960D01*
X139883178Y-91522945D01*
X139926634Y-91666206D01*
X139997206Y-91798236D01*
X140041118Y-91851742D01*
X140092180Y-91913961D01*
X140121178Y-91937759D01*
X141166681Y-92983263D01*
X141190479Y-93012261D01*
X141306204Y-93107234D01*
X141438233Y-93177806D01*
X141581494Y-93221263D01*
X141693147Y-93232260D01*
X141693155Y-93232260D01*
X141730480Y-93235936D01*
X141767805Y-93232260D01*
X153031551Y-93232260D01*
X153081716Y-93307337D01*
X153264183Y-93489804D01*
X153478742Y-93633167D01*
X153717147Y-93731918D01*
X153970236Y-93782260D01*
X154228284Y-93782260D01*
X154481373Y-93731918D01*
X154719778Y-93633167D01*
X154934337Y-93489804D01*
X155116804Y-93307337D01*
X155260167Y-93092778D01*
X155358918Y-92854373D01*
X155409260Y-92601284D01*
X155409260Y-92343236D01*
X155358918Y-92090147D01*
X155260167Y-91851742D01*
X155138563Y-91669747D01*
X155225445Y-91598445D01*
X155304797Y-91501754D01*
X155363762Y-91391440D01*
X155400072Y-91271742D01*
X155412332Y-91147260D01*
X155412332Y-89797260D01*
X155400072Y-89672778D01*
X155363762Y-89553080D01*
X155304797Y-89442766D01*
X155225445Y-89346075D01*
X155128754Y-89266723D01*
X155018440Y-89207758D01*
X154898742Y-89171448D01*
X154774260Y-89159188D01*
X153424260Y-89159188D01*
X153299778Y-89171448D01*
X153180080Y-89207758D01*
X153069766Y-89266723D01*
X152973075Y-89346075D01*
X152893723Y-89442766D01*
X152834758Y-89553080D01*
X152798448Y-89672778D01*
X152794559Y-89712260D01*
X149910642Y-89712260D01*
X148872701Y-88674320D01*
X155554679Y-88674320D01*
X159386161Y-92505803D01*
X159409959Y-92534801D01*
X159438957Y-92558599D01*
X159525683Y-92629774D01*
X159626043Y-92683418D01*
X159657713Y-92700346D01*
X159800974Y-92743803D01*
X159912627Y-92754800D01*
X159912636Y-92754800D01*
X159949959Y-92758476D01*
X159987282Y-92754800D01*
X165253860Y-92754800D01*
X165341081Y-92885335D01*
X165535666Y-93079920D01*
X165764474Y-93232805D01*
X165841716Y-93264800D01*
X165764474Y-93296795D01*
X165535666Y-93449680D01*
X165341081Y-93644265D01*
X165253860Y-93774800D01*
X162006962Y-93774800D01*
X161969639Y-93771124D01*
X161932316Y-93774800D01*
X161932307Y-93774800D01*
X161820654Y-93785797D01*
X161677393Y-93829254D01*
X161545364Y-93899826D01*
X161429639Y-93994799D01*
X161405841Y-94023797D01*
X157254099Y-98175540D01*
X142704951Y-98175540D01*
X142661014Y-98131603D01*
X142491496Y-98018335D01*
X142365680Y-97966220D01*
X142365680Y-97914121D01*
X142325906Y-97714162D01*
X142247885Y-97525804D01*
X142134617Y-97356286D01*
X141990454Y-97212123D01*
X141820936Y-97098855D01*
X141632578Y-97020834D01*
X141432619Y-96981060D01*
X141228741Y-96981060D01*
X141028782Y-97020834D01*
X140840424Y-97098855D01*
X140670906Y-97212123D01*
X140626969Y-97256060D01*
X127899002Y-97256060D01*
X124666744Y-94023803D01*
X124642941Y-93994799D01*
X124527216Y-93899826D01*
X124395187Y-93829254D01*
X124251926Y-93785797D01*
X124140273Y-93774800D01*
X124140262Y-93774800D01*
X124102940Y-93771124D01*
X124065618Y-93774800D01*
X122038542Y-93774800D01*
X121951321Y-93644265D01*
X121756736Y-93449680D01*
X121527928Y-93296795D01*
X121450686Y-93264800D01*
X121527928Y-93232805D01*
X121756736Y-93079920D01*
X121951321Y-92885335D01*
X122038542Y-92754800D01*
X124683218Y-92754800D01*
X124720540Y-92758476D01*
X124757862Y-92754800D01*
X124757873Y-92754800D01*
X124869526Y-92743803D01*
X125012787Y-92700346D01*
X125144816Y-92629774D01*
X125260541Y-92534801D01*
X125284343Y-92505798D01*
X125606382Y-92183760D01*
X127306431Y-92183760D01*
X127356596Y-92258837D01*
X127539063Y-92441304D01*
X127753622Y-92584667D01*
X127992027Y-92683418D01*
X128245116Y-92733760D01*
X128503164Y-92733760D01*
X128756253Y-92683418D01*
X128994658Y-92584667D01*
X129209217Y-92441304D01*
X129391684Y-92258837D01*
X129535047Y-92044278D01*
X129633798Y-91805873D01*
X129684140Y-91552784D01*
X129684140Y-91294736D01*
X129633798Y-91041647D01*
X129535047Y-90803242D01*
X129391684Y-90588683D01*
X129226761Y-90423760D01*
X129391684Y-90258837D01*
X129535047Y-90044278D01*
X129633798Y-89805873D01*
X129684140Y-89552784D01*
X129684140Y-89294736D01*
X129633798Y-89041647D01*
X129535047Y-88803242D01*
X129391684Y-88588683D01*
X129226761Y-88423760D01*
X129391684Y-88258837D01*
X129535047Y-88044278D01*
X129633798Y-87805873D01*
X129684140Y-87552784D01*
X129684140Y-87294736D01*
X129633798Y-87041647D01*
X129535047Y-86803242D01*
X129391684Y-86588683D01*
X129226761Y-86423760D01*
X129391684Y-86258837D01*
X129535047Y-86044278D01*
X129633798Y-85805873D01*
X129684140Y-85552784D01*
X129684140Y-85294736D01*
X129633798Y-85041647D01*
X129535047Y-84803242D01*
X129413443Y-84621247D01*
X129500325Y-84549945D01*
X129579677Y-84453254D01*
X129638642Y-84342940D01*
X129674952Y-84223242D01*
X129687212Y-84098760D01*
X129687212Y-82748760D01*
X129674952Y-82624278D01*
X129638642Y-82504580D01*
X129579677Y-82394266D01*
X129500325Y-82297575D01*
X129403634Y-82218223D01*
X129293320Y-82159258D01*
X129173622Y-82122948D01*
X129049140Y-82110688D01*
X128135870Y-82110688D01*
X127348984Y-81323803D01*
X127325181Y-81294799D01*
X127221853Y-81210000D01*
X161047827Y-81210000D01*
X160944499Y-81294799D01*
%TA.AperFunction,Conductor*%
D17*
G36*
X160944499Y-81294799D02*
G01*
X160920701Y-81323797D01*
X156741019Y-85503480D01*
X141694031Y-85503480D01*
X141650094Y-85459543D01*
X141480576Y-85346275D01*
X141292218Y-85268254D01*
X141092259Y-85228480D01*
X140888381Y-85228480D01*
X140688422Y-85268254D01*
X140500064Y-85346275D01*
X140367986Y-85434527D01*
X140205496Y-85325955D01*
X140017138Y-85247934D01*
X139817179Y-85208160D01*
X139613301Y-85208160D01*
X139413342Y-85247934D01*
X139224984Y-85325955D01*
X139055466Y-85439223D01*
X138911303Y-85583386D01*
X138798035Y-85752904D01*
X138720014Y-85941262D01*
X138680240Y-86141221D01*
X138680240Y-86345099D01*
X138720014Y-86545058D01*
X138798035Y-86733416D01*
X138911303Y-86902934D01*
X139055466Y-87047097D01*
X139224984Y-87160365D01*
X139413342Y-87238386D01*
X139613301Y-87278160D01*
X139675438Y-87278160D01*
X139896762Y-87499483D01*
X139920560Y-87528482D01*
X139949558Y-87552280D01*
X140036284Y-87623455D01*
X140132343Y-87674800D01*
X140168314Y-87694027D01*
X140311575Y-87737484D01*
X140423228Y-87748481D01*
X140423237Y-87748481D01*
X140460560Y-87752157D01*
X140497883Y-87748481D01*
X141240410Y-87748481D01*
X141227700Y-87812381D01*
X141227700Y-87941370D01*
X141122436Y-87871035D01*
X140934078Y-87793014D01*
X140734119Y-87753240D01*
X140530241Y-87753240D01*
X140330282Y-87793014D01*
X140141924Y-87871035D01*
X139972406Y-87984303D01*
X139828243Y-88128466D01*
X139714975Y-88297984D01*
X139636954Y-88486342D01*
X139597180Y-88686301D01*
X139597180Y-88890179D01*
X139636954Y-89090138D01*
X139714975Y-89278496D01*
X139828243Y-89448014D01*
X139872180Y-89491951D01*
X139872181Y-91336628D01*
X139868504Y-91373960D01*
X139883178Y-91522945D01*
X139926634Y-91666206D01*
X139997206Y-91798236D01*
X140041118Y-91851742D01*
X140092180Y-91913961D01*
X140121178Y-91937759D01*
X141166681Y-92983263D01*
X141190479Y-93012261D01*
X141306204Y-93107234D01*
X141438233Y-93177806D01*
X141581494Y-93221263D01*
X141693147Y-93232260D01*
X141693155Y-93232260D01*
X141730480Y-93235936D01*
X141767805Y-93232260D01*
X153031551Y-93232260D01*
X153081716Y-93307337D01*
X153264183Y-93489804D01*
X153478742Y-93633167D01*
X153717147Y-93731918D01*
X153970236Y-93782260D01*
X154228284Y-93782260D01*
X154481373Y-93731918D01*
X154719778Y-93633167D01*
X154934337Y-93489804D01*
X155116804Y-93307337D01*
X155260167Y-93092778D01*
X155358918Y-92854373D01*
X155409260Y-92601284D01*
X155409260Y-92343236D01*
X155358918Y-92090147D01*
X155260167Y-91851742D01*
X155138563Y-91669747D01*
X155225445Y-91598445D01*
X155304797Y-91501754D01*
X155363762Y-91391440D01*
X155400072Y-91271742D01*
X155412332Y-91147260D01*
X155412332Y-89797260D01*
X155400072Y-89672778D01*
X155363762Y-89553080D01*
X155304797Y-89442766D01*
X155225445Y-89346075D01*
X155128754Y-89266723D01*
X155018440Y-89207758D01*
X154898742Y-89171448D01*
X154774260Y-89159188D01*
X153424260Y-89159188D01*
X153299778Y-89171448D01*
X153180080Y-89207758D01*
X153069766Y-89266723D01*
X152973075Y-89346075D01*
X152893723Y-89442766D01*
X152834758Y-89553080D01*
X152798448Y-89672778D01*
X152794559Y-89712260D01*
X149910642Y-89712260D01*
X148872701Y-88674320D01*
X155554679Y-88674320D01*
X159386161Y-92505803D01*
X159409959Y-92534801D01*
X159438957Y-92558599D01*
X159525683Y-92629774D01*
X159626043Y-92683418D01*
X159657713Y-92700346D01*
X159800974Y-92743803D01*
X159912627Y-92754800D01*
X159912636Y-92754800D01*
X159949959Y-92758476D01*
X159987282Y-92754800D01*
X165253860Y-92754800D01*
X165341081Y-92885335D01*
X165535666Y-93079920D01*
X165764474Y-93232805D01*
X165841716Y-93264800D01*
X165764474Y-93296795D01*
X165535666Y-93449680D01*
X165341081Y-93644265D01*
X165253860Y-93774800D01*
X162006962Y-93774800D01*
X161969639Y-93771124D01*
X161932316Y-93774800D01*
X161932307Y-93774800D01*
X161820654Y-93785797D01*
X161677393Y-93829254D01*
X161545364Y-93899826D01*
X161429639Y-93994799D01*
X161405841Y-94023797D01*
X157254099Y-98175540D01*
X142704951Y-98175540D01*
X142661014Y-98131603D01*
X142491496Y-98018335D01*
X142365680Y-97966220D01*
X142365680Y-97914121D01*
X142325906Y-97714162D01*
X142247885Y-97525804D01*
X142134617Y-97356286D01*
X141990454Y-97212123D01*
X141820936Y-97098855D01*
X141632578Y-97020834D01*
X141432619Y-96981060D01*
X141228741Y-96981060D01*
X141028782Y-97020834D01*
X140840424Y-97098855D01*
X140670906Y-97212123D01*
X140626969Y-97256060D01*
X127899002Y-97256060D01*
X124666744Y-94023803D01*
X124642941Y-93994799D01*
X124527216Y-93899826D01*
X124395187Y-93829254D01*
X124251926Y-93785797D01*
X124140273Y-93774800D01*
X124140262Y-93774800D01*
X124102940Y-93771124D01*
X124065618Y-93774800D01*
X122038542Y-93774800D01*
X121951321Y-93644265D01*
X121756736Y-93449680D01*
X121527928Y-93296795D01*
X121450686Y-93264800D01*
X121527928Y-93232805D01*
X121756736Y-93079920D01*
X121951321Y-92885335D01*
X122038542Y-92754800D01*
X124683218Y-92754800D01*
X124720540Y-92758476D01*
X124757862Y-92754800D01*
X124757873Y-92754800D01*
X124869526Y-92743803D01*
X125012787Y-92700346D01*
X125144816Y-92629774D01*
X125260541Y-92534801D01*
X125284343Y-92505798D01*
X125606382Y-92183760D01*
X127306431Y-92183760D01*
X127356596Y-92258837D01*
X127539063Y-92441304D01*
X127753622Y-92584667D01*
X127992027Y-92683418D01*
X128245116Y-92733760D01*
X128503164Y-92733760D01*
X128756253Y-92683418D01*
X128994658Y-92584667D01*
X129209217Y-92441304D01*
X129391684Y-92258837D01*
X129535047Y-92044278D01*
X129633798Y-91805873D01*
X129684140Y-91552784D01*
X129684140Y-91294736D01*
X129633798Y-91041647D01*
X129535047Y-90803242D01*
X129391684Y-90588683D01*
X129226761Y-90423760D01*
X129391684Y-90258837D01*
X129535047Y-90044278D01*
X129633798Y-89805873D01*
X129684140Y-89552784D01*
X129684140Y-89294736D01*
X129633798Y-89041647D01*
X129535047Y-88803242D01*
X129391684Y-88588683D01*
X129226761Y-88423760D01*
X129391684Y-88258837D01*
X129535047Y-88044278D01*
X129633798Y-87805873D01*
X129684140Y-87552784D01*
X129684140Y-87294736D01*
X129633798Y-87041647D01*
X129535047Y-86803242D01*
X129391684Y-86588683D01*
X129226761Y-86423760D01*
X129391684Y-86258837D01*
X129535047Y-86044278D01*
X129633798Y-85805873D01*
X129684140Y-85552784D01*
X129684140Y-85294736D01*
X129633798Y-85041647D01*
X129535047Y-84803242D01*
X129413443Y-84621247D01*
X129500325Y-84549945D01*
X129579677Y-84453254D01*
X129638642Y-84342940D01*
X129674952Y-84223242D01*
X129687212Y-84098760D01*
X129687212Y-82748760D01*
X129674952Y-82624278D01*
X129638642Y-82504580D01*
X129579677Y-82394266D01*
X129500325Y-82297575D01*
X129403634Y-82218223D01*
X129293320Y-82159258D01*
X129173622Y-82122948D01*
X129049140Y-82110688D01*
X128135870Y-82110688D01*
X127348984Y-81323803D01*
X127325181Y-81294799D01*
X127221853Y-81210000D01*
X161047827Y-81210000D01*
X160944499Y-81294799D01*
G37*
%TD.AperFunction*%
%TD*%
M02*
