%TF.GenerationSoftware,KiCad,Pcbnew,(5.1.10)-1*%
%TF.CreationDate,2021-11-25T10:26:18+01:00*%
%TF.ProjectId,POWER_BOARD,504f5745-525f-4424-9f41-52442e6b6963,V01*%
%TF.SameCoordinates,Original*%
%TF.FileFunction,Paste,Bot*%
%TF.FilePolarity,Positive*%
%FSLAX46Y46*%
G04 Gerber Fmt 4.6, Leading zero omitted, Abs format (unit mm)*
G04 Created by KiCad (PCBNEW (5.1.10)-1) date 2021-11-25 10:26:18*
%MOMM*%
%LPD*%
G01*
G04 APERTURE LIST*
G04 APERTURE END LIST*
%TO.C,R2*%
G36*
G01*
X138644200Y-106638600D02*
X139194200Y-106638600D01*
G75*
G02*
X139394200Y-106838600I0J-200000D01*
G01*
X139394200Y-107238600D01*
G75*
G02*
X139194200Y-107438600I-200000J0D01*
G01*
X138644200Y-107438600D01*
G75*
G02*
X138444200Y-107238600I0J200000D01*
G01*
X138444200Y-106838600D01*
G75*
G02*
X138644200Y-106638600I200000J0D01*
G01*
G37*
G36*
G01*
X138644200Y-104988600D02*
X139194200Y-104988600D01*
G75*
G02*
X139394200Y-105188600I0J-200000D01*
G01*
X139394200Y-105588600D01*
G75*
G02*
X139194200Y-105788600I-200000J0D01*
G01*
X138644200Y-105788600D01*
G75*
G02*
X138444200Y-105588600I0J200000D01*
G01*
X138444200Y-105188600D01*
G75*
G02*
X138644200Y-104988600I200000J0D01*
G01*
G37*
%TD*%
%TO.C,R3*%
G36*
G01*
X138364800Y-96326200D02*
X138914800Y-96326200D01*
G75*
G02*
X139114800Y-96526200I0J-200000D01*
G01*
X139114800Y-96926200D01*
G75*
G02*
X138914800Y-97126200I-200000J0D01*
G01*
X138364800Y-97126200D01*
G75*
G02*
X138164800Y-96926200I0J200000D01*
G01*
X138164800Y-96526200D01*
G75*
G02*
X138364800Y-96326200I200000J0D01*
G01*
G37*
G36*
G01*
X138364800Y-94676200D02*
X138914800Y-94676200D01*
G75*
G02*
X139114800Y-94876200I0J-200000D01*
G01*
X139114800Y-95276200D01*
G75*
G02*
X138914800Y-95476200I-200000J0D01*
G01*
X138364800Y-95476200D01*
G75*
G02*
X138164800Y-95276200I0J200000D01*
G01*
X138164800Y-94876200D01*
G75*
G02*
X138364800Y-94676200I200000J0D01*
G01*
G37*
%TD*%
%TO.C,R4*%
G36*
G01*
X138644200Y-101204000D02*
X139194200Y-101204000D01*
G75*
G02*
X139394200Y-101404000I0J-200000D01*
G01*
X139394200Y-101804000D01*
G75*
G02*
X139194200Y-102004000I-200000J0D01*
G01*
X138644200Y-102004000D01*
G75*
G02*
X138444200Y-101804000I0J200000D01*
G01*
X138444200Y-101404000D01*
G75*
G02*
X138644200Y-101204000I200000J0D01*
G01*
G37*
G36*
G01*
X138644200Y-102854000D02*
X139194200Y-102854000D01*
G75*
G02*
X139394200Y-103054000I0J-200000D01*
G01*
X139394200Y-103454000D01*
G75*
G02*
X139194200Y-103654000I-200000J0D01*
G01*
X138644200Y-103654000D01*
G75*
G02*
X138444200Y-103454000I0J200000D01*
G01*
X138444200Y-103054000D01*
G75*
G02*
X138644200Y-102854000I200000J0D01*
G01*
G37*
%TD*%
%TO.C,R5*%
G36*
G01*
X138364800Y-90891600D02*
X138914800Y-90891600D01*
G75*
G02*
X139114800Y-91091600I0J-200000D01*
G01*
X139114800Y-91491600D01*
G75*
G02*
X138914800Y-91691600I-200000J0D01*
G01*
X138364800Y-91691600D01*
G75*
G02*
X138164800Y-91491600I0J200000D01*
G01*
X138164800Y-91091600D01*
G75*
G02*
X138364800Y-90891600I200000J0D01*
G01*
G37*
G36*
G01*
X138364800Y-92541600D02*
X138914800Y-92541600D01*
G75*
G02*
X139114800Y-92741600I0J-200000D01*
G01*
X139114800Y-93141600D01*
G75*
G02*
X138914800Y-93341600I-200000J0D01*
G01*
X138364800Y-93341600D01*
G75*
G02*
X138164800Y-93141600I0J200000D01*
G01*
X138164800Y-92741600D01*
G75*
G02*
X138364800Y-92541600I200000J0D01*
G01*
G37*
%TD*%
%TO.C,R8*%
G36*
G01*
X134809800Y-107340000D02*
X134809800Y-106790000D01*
G75*
G02*
X135009800Y-106590000I200000J0D01*
G01*
X135409800Y-106590000D01*
G75*
G02*
X135609800Y-106790000I0J-200000D01*
G01*
X135609800Y-107340000D01*
G75*
G02*
X135409800Y-107540000I-200000J0D01*
G01*
X135009800Y-107540000D01*
G75*
G02*
X134809800Y-107340000I0J200000D01*
G01*
G37*
G36*
G01*
X133159800Y-107340000D02*
X133159800Y-106790000D01*
G75*
G02*
X133359800Y-106590000I200000J0D01*
G01*
X133759800Y-106590000D01*
G75*
G02*
X133959800Y-106790000I0J-200000D01*
G01*
X133959800Y-107340000D01*
G75*
G02*
X133759800Y-107540000I-200000J0D01*
G01*
X133359800Y-107540000D01*
G75*
G02*
X133159800Y-107340000I0J200000D01*
G01*
G37*
%TD*%
%TO.C,R9*%
G36*
G01*
X129052100Y-107310600D02*
X129052100Y-106760600D01*
G75*
G02*
X129252100Y-106560600I200000J0D01*
G01*
X129652100Y-106560600D01*
G75*
G02*
X129852100Y-106760600I0J-200000D01*
G01*
X129852100Y-107310600D01*
G75*
G02*
X129652100Y-107510600I-200000J0D01*
G01*
X129252100Y-107510600D01*
G75*
G02*
X129052100Y-107310600I0J200000D01*
G01*
G37*
G36*
G01*
X130702100Y-107310600D02*
X130702100Y-106760600D01*
G75*
G02*
X130902100Y-106560600I200000J0D01*
G01*
X131302100Y-106560600D01*
G75*
G02*
X131502100Y-106760600I0J-200000D01*
G01*
X131502100Y-107310600D01*
G75*
G02*
X131302100Y-107510600I-200000J0D01*
G01*
X130902100Y-107510600D01*
G75*
G02*
X130702100Y-107310600I0J200000D01*
G01*
G37*
%TD*%
%TO.C,R10*%
G36*
G01*
X139407200Y-89052000D02*
X139407200Y-88502000D01*
G75*
G02*
X139607200Y-88302000I200000J0D01*
G01*
X140007200Y-88302000D01*
G75*
G02*
X140207200Y-88502000I0J-200000D01*
G01*
X140207200Y-89052000D01*
G75*
G02*
X140007200Y-89252000I-200000J0D01*
G01*
X139607200Y-89252000D01*
G75*
G02*
X139407200Y-89052000I0J200000D01*
G01*
G37*
G36*
G01*
X137757200Y-89052000D02*
X137757200Y-88502000D01*
G75*
G02*
X137957200Y-88302000I200000J0D01*
G01*
X138357200Y-88302000D01*
G75*
G02*
X138557200Y-88502000I0J-200000D01*
G01*
X138557200Y-89052000D01*
G75*
G02*
X138357200Y-89252000I-200000J0D01*
G01*
X137957200Y-89252000D01*
G75*
G02*
X137757200Y-89052000I0J200000D01*
G01*
G37*
%TD*%
%TO.C,R11*%
G36*
G01*
X133999000Y-89052000D02*
X133999000Y-88502000D01*
G75*
G02*
X134199000Y-88302000I200000J0D01*
G01*
X134599000Y-88302000D01*
G75*
G02*
X134799000Y-88502000I0J-200000D01*
G01*
X134799000Y-89052000D01*
G75*
G02*
X134599000Y-89252000I-200000J0D01*
G01*
X134199000Y-89252000D01*
G75*
G02*
X133999000Y-89052000I0J200000D01*
G01*
G37*
G36*
G01*
X135649000Y-89052000D02*
X135649000Y-88502000D01*
G75*
G02*
X135849000Y-88302000I200000J0D01*
G01*
X136249000Y-88302000D01*
G75*
G02*
X136449000Y-88502000I0J-200000D01*
G01*
X136449000Y-89052000D01*
G75*
G02*
X136249000Y-89252000I-200000J0D01*
G01*
X135849000Y-89252000D01*
G75*
G02*
X135649000Y-89052000I0J200000D01*
G01*
G37*
%TD*%
%TO.C,R14*%
G36*
G01*
X135139000Y-101686600D02*
X135689000Y-101686600D01*
G75*
G02*
X135889000Y-101886600I0J-200000D01*
G01*
X135889000Y-102286600D01*
G75*
G02*
X135689000Y-102486600I-200000J0D01*
G01*
X135139000Y-102486600D01*
G75*
G02*
X134939000Y-102286600I0J200000D01*
G01*
X134939000Y-101886600D01*
G75*
G02*
X135139000Y-101686600I200000J0D01*
G01*
G37*
G36*
G01*
X135139000Y-103336600D02*
X135689000Y-103336600D01*
G75*
G02*
X135889000Y-103536600I0J-200000D01*
G01*
X135889000Y-103936600D01*
G75*
G02*
X135689000Y-104136600I-200000J0D01*
G01*
X135139000Y-104136600D01*
G75*
G02*
X134939000Y-103936600I0J200000D01*
G01*
X134939000Y-103536600D01*
G75*
G02*
X135139000Y-103336600I200000J0D01*
G01*
G37*
%TD*%
%TO.C,R15*%
G36*
G01*
X130861000Y-103259400D02*
X130861000Y-103809400D01*
G75*
G02*
X130661000Y-104009400I-200000J0D01*
G01*
X130261000Y-104009400D01*
G75*
G02*
X130061000Y-103809400I0J200000D01*
G01*
X130061000Y-103259400D01*
G75*
G02*
X130261000Y-103059400I200000J0D01*
G01*
X130661000Y-103059400D01*
G75*
G02*
X130861000Y-103259400I0J-200000D01*
G01*
G37*
G36*
G01*
X132511000Y-103259400D02*
X132511000Y-103809400D01*
G75*
G02*
X132311000Y-104009400I-200000J0D01*
G01*
X131911000Y-104009400D01*
G75*
G02*
X131711000Y-103809400I0J200000D01*
G01*
X131711000Y-103259400D01*
G75*
G02*
X131911000Y-103059400I200000J0D01*
G01*
X132311000Y-103059400D01*
G75*
G02*
X132511000Y-103259400I0J-200000D01*
G01*
G37*
%TD*%
%TO.C,R16*%
G36*
G01*
X132167200Y-97978200D02*
X132717200Y-97978200D01*
G75*
G02*
X132917200Y-98178200I0J-200000D01*
G01*
X132917200Y-98578200D01*
G75*
G02*
X132717200Y-98778200I-200000J0D01*
G01*
X132167200Y-98778200D01*
G75*
G02*
X131967200Y-98578200I0J200000D01*
G01*
X131967200Y-98178200D01*
G75*
G02*
X132167200Y-97978200I200000J0D01*
G01*
G37*
G36*
G01*
X132167200Y-99628200D02*
X132717200Y-99628200D01*
G75*
G02*
X132917200Y-99828200I0J-200000D01*
G01*
X132917200Y-100228200D01*
G75*
G02*
X132717200Y-100428200I-200000J0D01*
G01*
X132167200Y-100428200D01*
G75*
G02*
X131967200Y-100228200I0J200000D01*
G01*
X131967200Y-99828200D01*
G75*
G02*
X132167200Y-99628200I200000J0D01*
G01*
G37*
%TD*%
%TO.C,R17*%
G36*
G01*
X132167200Y-95108000D02*
X132717200Y-95108000D01*
G75*
G02*
X132917200Y-95308000I0J-200000D01*
G01*
X132917200Y-95708000D01*
G75*
G02*
X132717200Y-95908000I-200000J0D01*
G01*
X132167200Y-95908000D01*
G75*
G02*
X131967200Y-95708000I0J200000D01*
G01*
X131967200Y-95308000D01*
G75*
G02*
X132167200Y-95108000I200000J0D01*
G01*
G37*
G36*
G01*
X132167200Y-93458000D02*
X132717200Y-93458000D01*
G75*
G02*
X132917200Y-93658000I0J-200000D01*
G01*
X132917200Y-94058000D01*
G75*
G02*
X132717200Y-94258000I-200000J0D01*
G01*
X132167200Y-94258000D01*
G75*
G02*
X131967200Y-94058000I0J200000D01*
G01*
X131967200Y-93658000D01*
G75*
G02*
X132167200Y-93458000I200000J0D01*
G01*
G37*
%TD*%
M02*
