M48
INCH,TZ
T1C0.0157
T2C0.0300
T3C0.0315
T4C0.0472
T5C0.0543
%
G90
G05
T1
X38360Y-36179
X38384Y-38119
X38385Y-37656
X38391Y-37142
X40206Y-38158
X41973Y-40882
X41993Y-42582
X43293Y-40132
X43643Y-42632
X44688Y-42250
X45703Y-42232
X47623Y-39832
X48013Y-40312
X48693Y-40532
X49953Y-40382
X50073Y-39672
X50273Y-42122
X50663Y-40982
X51513Y-35182
X51742Y-40041
X52103Y-41892
X52663Y-39742
X54603Y-38762
T2
X50563Y-36062
X50563Y-37062
X50563Y-38062
X50563Y-39062
X53563Y-36062
X53563Y-37062
X53563Y-38062
X53563Y-39062
T3
X40913Y-32282
X40913Y-33282
X40913Y-34282
X40913Y-35282
X40913Y-36282
X40913Y-37282
X40913Y-38282
X40913Y-39282
X43913Y-32282
X43913Y-33282
X43913Y-34282
X43913Y-35282
X43913Y-36282
X43913Y-37282
X43913Y-38282
X43913Y-39282
T4
X45293Y-32782
X46293Y-32782
X47723Y-32782
X48723Y-32782
X52833Y-32802
X53833Y-32802
X58523Y-32582
X58523Y-33582
X58523Y-38432
X58523Y-39432
X58543Y-35552
X58543Y-36552
T5
X56163Y-34282
X56163Y-35282
X56163Y-36282
X56163Y-38982
X56163Y-39982
X56163Y-40982
T0
M30
