M48
INCH,TZ
T1C0.0157
T2C0.0354
T3C0.0433
%
G90
G05
T1
X36137Y-40910
X36973Y-36570
X37070Y-34556
X37673Y-40565
X38171Y-40838
X39206Y-36467
X39262Y-32900
X39832Y-38791
X40018Y-40544
X40393Y-35046
X40806Y-38929
X40808Y-40552
X40810Y-35046
X41168Y-32942
X41632Y-40539
X42440Y-40542
X42473Y-38933
X42818Y-35290
X43287Y-38920
X43290Y-40552
X43320Y-33012
X43412Y-36524
X45633Y-33923
X45817Y-32655
X46494Y-33332
X47002Y-35898
X50218Y-37762
X50395Y-36020
X50440Y-33882
X50700Y-37689
X51145Y-36006
X51620Y-33332
X51714Y-37663
X52454Y-39127
X52806Y-39800
X53154Y-33822
T2
X45264Y-41042
X46839Y-41042
T3
X35961Y-31799
X35961Y-37799
X36961Y-31799
X36961Y-32799
X36961Y-37799
X37961Y-31799
X37961Y-37799
X38961Y-31799
X38961Y-37799
X39961Y-31799
X39961Y-37799
X40961Y-31799
X40961Y-37799
X41961Y-31799
X41961Y-37799
X42961Y-31799
X42961Y-37799
X43961Y-31799
X43961Y-37799
X44961Y-31799
X44961Y-37799
X45961Y-31799
X45961Y-37799
X46961Y-31799
X46961Y-37799
X47961Y-31799
X47961Y-37799
X48961Y-31799
X48961Y-32799
X48961Y-33799
X48961Y-34799
X48961Y-35799
X48961Y-36799
X48961Y-37799
T0
M30
