%TF.GenerationSoftware,KiCad,Pcbnew,(5.1.10)-1*%
%TF.CreationDate,2021-11-25T10:21:51+01:00*%
%TF.ProjectId,EXTENSION_BOARD,45585445-4e53-4494-9f4e-5f424f415244,rev?*%
%TF.SameCoordinates,Original*%
%TF.FileFunction,Paste,Top*%
%TF.FilePolarity,Positive*%
%FSLAX46Y46*%
G04 Gerber Fmt 4.6, Leading zero omitted, Abs format (unit mm)*
G04 Created by KiCad (PCBNEW (5.1.10)-1) date 2021-11-25 10:21:51*
%MOMM*%
%LPD*%
G01*
G04 APERTURE LIST*
%ADD10R,0.800000X0.800000*%
%ADD11R,0.600000X1.100000*%
%ADD12R,0.800000X1.200000*%
%ADD13R,1.300000X2.150000*%
%ADD14R,1.200000X0.800000*%
%ADD15R,2.150000X1.300000*%
%ADD16R,2.200000X1.200000*%
%ADD17R,3.050000X2.750000*%
G04 APERTURE END LIST*
D10*
%TO.C,D1*%
X101638100Y-100144580D03*
X101638100Y-101644580D03*
%TD*%
%TO.C,D2*%
X103657400Y-101642040D03*
X103657400Y-100142040D03*
%TD*%
%TO.C,D3*%
X105735120Y-100142040D03*
X105735120Y-101642040D03*
%TD*%
%TO.C,D4*%
X107805220Y-101647120D03*
X107805220Y-100147120D03*
%TD*%
%TO.C,D5*%
X109951520Y-100136960D03*
X109951520Y-101636960D03*
%TD*%
D11*
%TO.C,IC2*%
X129884960Y-90050800D03*
X131134960Y-90050800D03*
X132384960Y-90050800D03*
X133634960Y-90050800D03*
X133634960Y-87850800D03*
X132384960Y-87850800D03*
X131134960Y-87850800D03*
X129884960Y-87850800D03*
%TD*%
D12*
%TO.C,J3*%
X130012360Y-82236420D03*
X128762360Y-82236420D03*
D13*
X126862360Y-79941420D03*
X131912360Y-79941420D03*
%TD*%
D12*
%TO.C,J2*%
X107306980Y-105726120D03*
X108556980Y-105726120D03*
D13*
X110456980Y-108021120D03*
X105406980Y-108021120D03*
%TD*%
D14*
%TO.C,J1*%
X93976300Y-106917900D03*
X93976300Y-105667900D03*
X93976300Y-104417900D03*
X93976300Y-103167900D03*
X93976300Y-101917900D03*
X93976300Y-100667900D03*
D15*
X91681300Y-108817900D03*
X91681300Y-98767900D03*
%TD*%
%TO.C,R2*%
G36*
G01*
X127779100Y-87736460D02*
X128329100Y-87736460D01*
G75*
G02*
X128529100Y-87936460I0J-200000D01*
G01*
X128529100Y-88336460D01*
G75*
G02*
X128329100Y-88536460I-200000J0D01*
G01*
X127779100Y-88536460D01*
G75*
G02*
X127579100Y-88336460I0J200000D01*
G01*
X127579100Y-87936460D01*
G75*
G02*
X127779100Y-87736460I200000J0D01*
G01*
G37*
G36*
G01*
X127779100Y-89386460D02*
X128329100Y-89386460D01*
G75*
G02*
X128529100Y-89586460I0J-200000D01*
G01*
X128529100Y-89986460D01*
G75*
G02*
X128329100Y-90186460I-200000J0D01*
G01*
X127779100Y-90186460D01*
G75*
G02*
X127579100Y-89986460I0J200000D01*
G01*
X127579100Y-89586460D01*
G75*
G02*
X127779100Y-89386460I200000J0D01*
G01*
G37*
%TD*%
%TO.C,R3*%
G36*
G01*
X129895280Y-85790360D02*
X129895280Y-86340360D01*
G75*
G02*
X129695280Y-86540360I-200000J0D01*
G01*
X129295280Y-86540360D01*
G75*
G02*
X129095280Y-86340360I0J200000D01*
G01*
X129095280Y-85790360D01*
G75*
G02*
X129295280Y-85590360I200000J0D01*
G01*
X129695280Y-85590360D01*
G75*
G02*
X129895280Y-85790360I0J-200000D01*
G01*
G37*
G36*
G01*
X131545280Y-85790360D02*
X131545280Y-86340360D01*
G75*
G02*
X131345280Y-86540360I-200000J0D01*
G01*
X130945280Y-86540360D01*
G75*
G02*
X130745280Y-86340360I0J200000D01*
G01*
X130745280Y-85790360D01*
G75*
G02*
X130945280Y-85590360I200000J0D01*
G01*
X131345280Y-85590360D01*
G75*
G02*
X131545280Y-85790360I0J-200000D01*
G01*
G37*
%TD*%
%TO.C,D6*%
G36*
G01*
X130810290Y-96737820D02*
X131322790Y-96737820D01*
G75*
G02*
X131541540Y-96956570I0J-218750D01*
G01*
X131541540Y-97394070D01*
G75*
G02*
X131322790Y-97612820I-218750J0D01*
G01*
X130810290Y-97612820D01*
G75*
G02*
X130591540Y-97394070I0J218750D01*
G01*
X130591540Y-96956570D01*
G75*
G02*
X130810290Y-96737820I218750J0D01*
G01*
G37*
G36*
G01*
X130810290Y-98312820D02*
X131322790Y-98312820D01*
G75*
G02*
X131541540Y-98531570I0J-218750D01*
G01*
X131541540Y-98969070D01*
G75*
G02*
X131322790Y-99187820I-218750J0D01*
G01*
X130810290Y-99187820D01*
G75*
G02*
X130591540Y-98969070I0J218750D01*
G01*
X130591540Y-98531570D01*
G75*
G02*
X130810290Y-98312820I218750J0D01*
G01*
G37*
%TD*%
%TO.C,D7*%
G36*
G01*
X128488730Y-98295040D02*
X129001230Y-98295040D01*
G75*
G02*
X129219980Y-98513790I0J-218750D01*
G01*
X129219980Y-98951290D01*
G75*
G02*
X129001230Y-99170040I-218750J0D01*
G01*
X128488730Y-99170040D01*
G75*
G02*
X128269980Y-98951290I0J218750D01*
G01*
X128269980Y-98513790D01*
G75*
G02*
X128488730Y-98295040I218750J0D01*
G01*
G37*
G36*
G01*
X128488730Y-96720040D02*
X129001230Y-96720040D01*
G75*
G02*
X129219980Y-96938790I0J-218750D01*
G01*
X129219980Y-97376290D01*
G75*
G02*
X129001230Y-97595040I-218750J0D01*
G01*
X128488730Y-97595040D01*
G75*
G02*
X128269980Y-97376290I0J218750D01*
G01*
X128269980Y-96938790D01*
G75*
G02*
X128488730Y-96720040I218750J0D01*
G01*
G37*
%TD*%
%TO.C,R5*%
G36*
G01*
X123757100Y-100962680D02*
X123207100Y-100962680D01*
G75*
G02*
X123007100Y-100762680I0J200000D01*
G01*
X123007100Y-100362680D01*
G75*
G02*
X123207100Y-100162680I200000J0D01*
G01*
X123757100Y-100162680D01*
G75*
G02*
X123957100Y-100362680I0J-200000D01*
G01*
X123957100Y-100762680D01*
G75*
G02*
X123757100Y-100962680I-200000J0D01*
G01*
G37*
G36*
G01*
X123757100Y-99312680D02*
X123207100Y-99312680D01*
G75*
G02*
X123007100Y-99112680I0J200000D01*
G01*
X123007100Y-98712680D01*
G75*
G02*
X123207100Y-98512680I200000J0D01*
G01*
X123757100Y-98512680D01*
G75*
G02*
X123957100Y-98712680I0J-200000D01*
G01*
X123957100Y-99112680D01*
G75*
G02*
X123757100Y-99312680I-200000J0D01*
G01*
G37*
%TD*%
D16*
%TO.C,U3*%
X123181580Y-102944580D03*
X123181580Y-107504580D03*
D17*
X131156580Y-106749580D03*
X127806580Y-103699580D03*
X131156580Y-103699580D03*
X127806580Y-106749580D03*
%TD*%
D14*
%TO.C,J5*%
X135979100Y-92071660D03*
X135979100Y-93321660D03*
X135979100Y-94571660D03*
X135979100Y-95821660D03*
X135979100Y-97071660D03*
X135979100Y-98321660D03*
D15*
X138274100Y-90171660D03*
X138274100Y-100221660D03*
%TD*%
M02*
